<svg xmlns="http://www.w3.org/2000/svg" width="89" height="26" viewBox="0 0 89 26" fill="none"><path d="M8.83154 3.73853H10.55V8.02625C10.55 8.81702 11.1914 9.45838 11.9821 9.45838H13.1121C13.9028 9.45838 14.5442 8.81702 14.5442 8.02625V3.73853H16.2626V8.02625C16.2626 9.76729 14.8512 11.1783 13.1106 11.1783H11.9821C10.2449 11.1783 8.83154 9.76488 8.83154 8.02625V3.73853Z" fill="white"></path><path d="M1.01233 3.73853V5.26049H5.03005L1.57393 7.42861C0.621746 8.04114 0.333016 9.40553 1.05364 10.3798C1.43413 10.8943 2.05243 11.1783 2.69234 11.1783H4.50832V9.54485H2.65871C2.36998 9.54485 2.27486 9.33011 2.24844 9.23642C2.22153 9.14322 2.18454 8.91166 2.42763 8.75457L6.29451 6.32125V11.1764H8.00624V3.73853H1.01233Z" fill="white"></path><path d="M46.5923 3.7251V5.24706H50.6095L47.1539 7.4147C46.2022 8.02675 45.913 9.39114 46.6336 10.3649C47.0141 10.8795 47.6319 11.1634 48.2718 11.1634H50.0878V9.53046H48.2387C47.9499 9.53046 47.8548 9.31571 47.8284 9.22203C47.8015 9.12883 47.7645 8.89775 48.0076 8.74066L51.8735 6.30734V11.1615H53.5847V3.7251H46.5923Z" fill="white"></path><path d="M21.7082 5.27014V3.75058H18.8329V0.378052H17.1384V8.32704C17.1384 8.83148 17.1946 9.26529 17.3085 9.62753C17.4224 9.9888 17.5924 10.2862 17.8206 10.5182C18.0483 10.7507 18.3313 10.9194 18.6671 11.0227C19.0044 11.1264 19.3906 11.1778 19.8259 11.1778H22.559V9.5473H19.885C19.6573 9.5473 19.4737 9.50598 19.3359 9.42143C19.197 9.33688 19.0904 9.2259 19.0164 9.08706C18.9424 8.94774 18.892 8.78824 18.8684 8.60472C18.8429 8.4212 18.8314 8.23624 18.8314 8.04696V5.26966H21.7082V5.27014Z" fill="white"></path><path d="M28.8935 3.73853H25.9062C24.5298 3.73853 23.4138 4.73539 23.4138 5.9643V8.95154C23.4138 10.1804 24.5293 11.1773 25.9062 11.1773H28.892C30.2684 11.1773 31.3844 10.1809 31.3844 8.95154V5.9643C31.3844 4.73539 30.2689 3.73853 28.892 3.73853H28.8935ZM29.7155 8.95009C29.7155 9.2124 29.3638 9.50594 28.892 9.50594H25.9062C25.4354 9.50594 25.0828 9.2124 25.0828 8.95009V5.96286C25.0828 5.69911 25.42 5.40702 25.9062 5.40702H28.8935C29.3782 5.40702 29.7169 5.70055 29.7169 5.96286V8.95009H29.7155Z" fill="white"></path><path d="M68.6999 3.69922H65.7074C64.3286 3.69922 63.2107 4.69753 63.2107 5.92884V8.92088C63.2107 10.1522 64.3281 11.1505 65.7074 11.1505H68.6985C70.0773 11.1505 71.1952 10.1522 71.1952 8.92088V5.92884C71.1952 4.69753 70.0778 3.69922 68.6985 3.69922H68.6999ZM69.5234 8.91943C69.5234 9.18222 69.1712 9.47624 68.6985 9.47624H65.7074C65.2361 9.47624 64.8825 9.18222 64.8825 8.91943V5.92739C64.8825 5.66317 65.2203 5.37059 65.7074 5.37059H68.6999C69.1856 5.37059 69.5248 5.66461 69.5248 5.92739V8.91943H69.5234Z" fill="white"></path><path d="M68.8065 2.08308C68.6763 2.17195 68.5553 2.22528 68.4448 2.24257C68.2401 2.27476 68.022 2.2517 67.7914 2.17339C67.5608 2.09509 67.3216 2.00669 67.0746 1.9082C66.8277 1.80972 66.5735 1.72372 66.3132 1.65022C66.0523 1.57672 65.7895 1.56038 65.5253 1.6017C65.0814 1.67088 64.7062 1.92646 64.3992 2.36748L65.1952 2.84646C65.3365 2.63219 65.4969 2.51113 65.6761 2.48326C65.8039 2.46309 65.973 2.49431 66.1825 2.5755C66.3919 2.65717 66.6264 2.74413 66.8853 2.83589C67.1443 2.92813 67.4172 3.00884 67.7035 3.0785C67.9898 3.14816 68.2781 3.16017 68.5682 3.11453C69.1486 3.02373 69.629 2.6836 70.0085 2.09364L69.225 1.61275C69.0765 1.8371 68.9372 1.99372 68.8065 2.0826V2.08308Z" fill="white"></path><path d="M79.7579 5.0613C79.6243 4.78987 79.4379 4.55254 79.1982 4.34932C78.958 4.14611 78.6784 3.98421 78.3584 3.86362C78.1518 3.78579 77.9332 3.73583 77.705 3.70845C77.5792 3.69307 77.4514 3.68298 77.3188 3.68298H74.6794C74.5569 3.68298 74.4368 3.69211 74.3186 3.70845C74.111 3.73775 73.9107 3.79252 73.7176 3.87275C72.7318 4.16628 72.0203 4.99644 72.0203 5.97554V8.95028C72.0203 10.1744 73.1315 11.1669 74.5026 11.1669H77.4764C77.7545 11.1669 78.0216 11.1256 78.2715 11.0502C78.6361 10.9724 78.9551 10.8446 79.2289 10.6663C79.7151 10.3497 79.9587 9.93562 79.9587 9.42301V8.87053H78.2984V8.94836H78.2969C78.2969 9.13332 78.1211 9.33317 77.8521 9.43454C77.7022 9.45712 77.5244 9.46817 77.3193 9.46817H74.6799C74.3998 9.46817 74.1528 9.37449 73.9395 9.18568C73.9386 9.18472 73.9371 9.18376 73.9362 9.18232C73.7675 9.03195 73.683 8.80904 73.683 8.58276V8.27001H79.9592V5.94191C79.9592 5.62579 79.8919 5.33178 79.7588 5.06034L79.7579 5.0613ZM73.682 6.20998C73.682 5.99139 73.7757 5.78289 73.9391 5.6378C73.965 5.61522 73.9909 5.5936 74.0178 5.57391C74.1562 5.4711 74.3267 5.42113 74.4992 5.42113H74.5026H77.4778C77.9606 5.42113 78.2979 5.71323 78.2979 5.97457V6.62122H73.6825V6.20998H73.682Z" fill="white"></path><path d="M57.6993 11.9907C57.6993 12.1545 57.6824 12.2832 57.6488 12.3774C57.6152 12.4711 57.5873 12.5412 57.5647 12.5883H56.9263V13.871H57.6488C58.0519 13.871 58.3853 13.6952 58.6486 13.344C58.9118 12.9923 59.0435 12.5412 59.0435 11.9911V11.92H57.6997V11.9911L57.6993 11.9907Z" fill="white"></path><path d="M62.3868 8.95589V8.22661H60.7168V8.95589C60.7168 9.21819 60.3652 9.51221 59.8924 9.51221H56.9042C56.4334 9.51221 56.0798 9.21867 56.0798 8.95589V5.96625C56.0798 5.7025 56.4176 5.40992 56.9042 5.40992H59.8939C60.3791 5.40992 60.7183 5.70346 60.7183 5.96625V6.80217H62.3882V5.96625C62.3882 4.72053 61.2419 3.71261 59.8401 3.73903C58.8759 3.73903 57.9131 3.73903 56.9489 3.73903C55.5509 3.71741 54.4099 4.72197 54.4099 5.96673V8.95637C54.4099 10.0565 55.3035 10.9703 56.4781 11.1509H60.3186C61.4932 10.9703 62.3868 10.0565 62.3868 8.95637V8.95589Z" fill="white"></path><path d="M56.478 11.1506C56.5587 11.1631 56.6404 11.1718 56.7235 11.1771H60.073C60.1561 11.1718 60.2378 11.1626 60.3185 11.1506H56.478Z" fill="white"></path><path d="M7.98497 15.4603H6.27612V22.8876H7.98497V15.4603Z" fill="white"></path><path d="M8.00963 12.8649H6.30078V13.7272H8.00963V12.8649Z" fill="white"></path><path d="M36.4322 15.4602H34.7234V22.8875H36.4322V15.4602Z" fill="white"></path><path d="M36.4325 12.8649H34.7236V13.7272H36.4325V12.8649Z" fill="white"></path><path d="M19.3503 21.1327C19.2114 21.0482 19.1048 20.9372 19.0308 20.7984C18.9568 20.6595 18.9064 20.4995 18.8828 20.316C18.8574 20.1325 18.8458 19.9475 18.8458 19.7583V16.981H21.7226V15.4614H18.8473V12.0889H17.1528V20.0379C17.1528 20.5423 17.209 20.9761 17.3229 21.3383C17.4368 21.6996 17.6068 21.997 17.835 22.229C18.0627 22.4616 18.3457 22.6302 18.6815 22.7335C19.0193 22.8372 19.405 22.8887 19.8403 22.8887H22.5734V21.2581H19.8994C19.6717 21.2581 19.4881 21.2168 19.3503 21.1322V21.1327Z" fill="white"></path><path d="M65.3105 21.1327C65.1716 21.0482 65.065 20.9372 64.991 20.7984C64.917 20.6595 64.8666 20.4995 64.843 20.316C64.8176 20.1325 64.806 19.9475 64.806 19.7583V16.981H67.6828V15.4614H64.8075V12.0889H63.113V20.0379C63.113 20.5423 63.1692 20.9761 63.2831 21.3383C63.397 21.6996 63.567 21.997 63.7952 22.229C64.0229 22.4616 64.3059 22.6302 64.6417 22.7335C64.979 22.8372 65.3652 22.8887 65.8005 22.8887H68.5336V21.2581H65.8596C65.6319 21.2581 65.4483 21.2168 65.3105 21.1322V21.1327Z" fill="white"></path><path d="M15.3586 16.4184C14.7898 15.8145 13.9836 15.4364 13.0905 15.4364H11.9697C11.9097 15.4364 11.8501 15.4383 11.7905 15.4417C11.779 15.4422 11.7679 15.4436 11.7564 15.4441C11.7064 15.4475 11.657 15.4518 11.608 15.4575C11.5979 15.4585 11.5878 15.4599 11.5772 15.4614C11.5239 15.4681 11.4706 15.4763 11.4182 15.4859C11.4143 15.4864 11.411 15.4873 11.4071 15.4878C11.3341 15.5013 11.2621 15.5176 11.191 15.5363C11.1871 15.5373 11.1837 15.5382 11.1799 15.5392C9.84194 15.8899 8.85132 17.1083 8.85132 18.5558V22.9079H10.552V18.5558C10.552 18.5327 10.5544 18.5096 10.5554 18.4866V18.5303C10.5693 17.7597 11.1977 17.138 11.9716 17.138H13.0876C13.8664 17.138 14.501 17.7707 14.5054 18.5481V22.9074H16.2084V18.5553C16.2084 18.5495 16.2084 18.5437 16.2084 18.538C16.2041 17.7184 15.8813 16.9728 15.3586 16.4179V16.4184Z" fill="white"></path><path d="M61.4853 16.4312C60.9165 15.8273 60.1103 15.4492 59.2172 15.4492H58.0964C58.0364 15.4492 57.9768 15.4511 57.9172 15.4545C57.9057 15.455 57.8946 15.4564 57.8831 15.4569C57.8332 15.4603 57.7837 15.4646 57.7347 15.4704C57.7246 15.4713 57.7145 15.4728 57.7039 15.4742C57.6506 15.4809 57.5973 15.4891 57.5449 15.4987C57.5411 15.4992 57.5377 15.5001 57.5339 15.5006C57.4608 15.5141 57.3888 15.5304 57.3177 15.5491C57.3138 15.5501 57.3105 15.5511 57.3066 15.552C55.9687 15.9027 54.978 17.1211 54.978 18.5686V22.9207H56.6787V18.5686C56.6787 18.5455 56.6811 18.5225 56.6821 18.4994V18.5431C56.696 17.7725 57.3244 17.1509 58.0983 17.1509H59.2144C59.9931 17.1509 60.6277 17.7836 60.6321 18.5609V22.9202H62.3351V18.5681C62.3351 18.5623 62.3351 18.5566 62.3351 18.5508C62.3308 17.7312 62.008 16.9856 61.4853 16.4307V16.4312Z" fill="white"></path><path d="M31.167 16.8119C31.0335 16.5405 30.8471 16.3031 30.6074 16.0999C30.3676 15.8967 30.0876 15.7348 29.7676 15.6142C29.561 15.5364 29.3424 15.4869 29.1142 15.4591C28.9884 15.4437 28.8606 15.4336 28.728 15.4336H26.0886C25.966 15.4336 25.8459 15.4427 25.7278 15.4591C25.5202 15.4884 25.3199 15.5431 25.1268 15.6234C24.1409 15.9169 23.4294 16.7471 23.4294 17.7261V20.7009C23.4294 21.1342 23.5707 21.5373 23.8114 21.8784C24.2505 22.502 25.0259 22.9175 25.9118 22.9175H28.8855C29.1637 22.9175 29.4308 22.8762 29.6806 22.8008C30.0453 22.723 30.3643 22.5952 30.6381 22.4169C30.8774 22.2613 31.057 22.0816 31.1791 21.8784C31.3044 21.6685 31.3683 21.434 31.3683 21.1736V20.6332H29.6384C29.5058 20.9642 29.1901 21.202 28.8149 21.2173C28.7861 21.2178 28.7587 21.2188 28.7284 21.2188H26.089C25.8229 21.2188 25.5875 21.1333 25.3819 20.9627C25.2065 20.7965 25.096 20.5625 25.0922 20.3026V20.0206H31.3683V17.6925C31.3683 17.3764 31.3011 17.0824 31.168 16.8109L31.167 16.8119ZM25.0912 18.1014C25.0912 17.5873 25.5077 17.1708 26.0218 17.1708H28.7765C29.2901 17.1708 29.7066 17.5873 29.7071 18.1009V18.3709H25.0917V18.1009L25.0912 18.1014Z" fill="white"></path><path d="M53.9681 16.8212C53.8345 16.5498 53.6481 16.3124 53.4084 16.1092C53.1687 15.906 52.8886 15.7441 52.5686 15.6235C52.362 15.5457 52.1434 15.4962 51.9152 15.4683C51.7894 15.453 51.6616 15.4429 51.529 15.4429H48.8896C48.7671 15.4429 48.647 15.452 48.5288 15.4683C48.3212 15.4976 48.1209 15.5524 47.9278 15.6326C46.942 15.9262 46.2305 16.7563 46.2305 17.7354V20.7102C46.2305 21.1435 46.3717 21.5466 46.6124 21.8877C47.0515 22.5113 47.8269 22.9268 48.7128 22.9268H51.6866C51.9647 22.9268 52.2318 22.8855 52.4817 22.8101C52.8463 22.7322 53.1653 22.6045 53.4391 22.4262C53.6784 22.2706 53.8581 22.0909 53.9801 21.8877C54.1055 21.6777 54.1694 21.4433 54.1694 21.1829V20.6424H52.4394C52.3068 20.9734 51.9912 21.2112 51.6159 21.2266C51.5871 21.2271 51.5597 21.2281 51.5295 21.2281H48.8901C48.6239 21.2281 48.3885 21.1425 48.1829 20.972C48.0075 20.8058 47.897 20.5718 47.8932 20.3119V20.0299H54.1694V17.7018C54.1694 17.3857 54.1021 17.0917 53.969 16.8202L53.9681 16.8212ZM47.8922 18.1111C47.8922 17.5971 48.3088 17.1805 48.8228 17.1805H51.5775C52.0911 17.1805 52.5076 17.5971 52.5081 18.1106V18.3806H47.8927V18.1106L47.8922 18.1111Z" fill="white"></path><path d="M77.0953 16.8119C76.9617 16.5405 76.7753 16.3031 76.5356 16.0999C76.2959 15.8967 76.0158 15.7348 75.6958 15.6142C75.4892 15.5364 75.2706 15.4869 75.0424 15.4591C74.9166 15.4437 74.7888 15.4336 74.6562 15.4336H72.0168C71.8943 15.4336 71.7742 15.4427 71.656 15.4591C71.4484 15.4884 71.2481 15.5431 71.055 15.6234C70.0692 15.9169 69.3577 16.7471 69.3577 17.7261V20.7009C69.3577 21.1342 69.4989 21.5373 69.7396 21.8784C70.1787 22.502 70.9541 22.9175 71.84 22.9175H74.8138C75.0919 22.9175 75.359 22.8762 75.6089 22.8008C75.9735 22.723 76.2925 22.5952 76.5663 22.4169C76.8056 22.2613 76.9853 22.0816 77.1073 21.8784C77.2327 21.6685 77.2966 21.434 77.2966 21.1736V20.6332H75.5666C75.434 20.9642 75.1184 21.202 74.7431 21.2173C74.7143 21.2178 74.6869 21.2188 74.6567 21.2188H72.0173C71.7511 21.2188 71.5157 21.1333 71.3101 20.9627C71.1347 20.7965 71.0242 20.5625 71.0204 20.3026V20.0206H77.2966V17.6925C77.2966 17.3764 77.2293 17.0824 77.0962 16.8109L77.0953 16.8119ZM71.0194 18.1014C71.0194 17.5873 71.436 17.1708 71.95 17.1708H74.7047C75.2183 17.1708 75.6348 17.5873 75.6353 18.1009V18.3709H71.0199V18.1009L71.0194 18.1014Z" fill="white"></path><path d="M84.3985 18.3295H79.7831V18.0475C79.7869 17.7876 79.8974 17.5541 80.0728 17.3874C80.2784 17.2174 80.5143 17.1314 80.78 17.1314H83.4194C83.4496 17.1314 83.477 17.1323 83.5058 17.1328C83.8806 17.1482 84.1967 17.386 84.3293 17.717H86.0588C86.0545 16.7418 85.3454 15.9154 84.3619 15.6224C84.1688 15.5422 83.9685 15.4874 83.7609 15.4581C83.6428 15.4413 83.5227 15.4326 83.4002 15.4326H80.6032C79.7173 15.4326 78.9424 15.8482 78.5028 16.4718C78.2621 16.8133 78.1208 17.2164 78.1208 17.6493V19.1972C78.1208 19.6516 78.4893 20.0206 78.9443 20.0206H84.397V20.3026C84.3932 20.5625 84.2827 20.796 84.1073 20.9627C83.9017 21.1328 83.6658 21.2188 83.4002 21.2188H80.7607C80.7305 21.2188 80.7031 21.2178 80.6743 21.2173C80.2991 21.2019 79.9834 20.9641 79.8508 20.6331H78.1213C78.1256 21.6084 78.8347 22.4347 79.8182 22.7278C80.0113 22.808 80.2116 22.8628 80.4192 22.8921C80.5373 22.9089 80.6575 22.9175 80.78 22.9175H83.5769C84.4628 22.9175 85.2377 22.502 85.6773 21.8784C85.918 21.5368 86.0593 21.1337 86.0593 20.7009V19.153C86.0593 18.6985 85.6908 18.3295 85.2358 18.3295H84.3985Z" fill="white"></path><path d="M87.0606 6.57734H82.4452V6.29533C82.449 6.03543 82.5595 5.80194 82.7349 5.63524C82.9405 5.46517 83.1764 5.37918 83.4421 5.37918H86.0815C86.1118 5.37918 86.1391 5.38014 86.168 5.38062C86.5427 5.39599 86.8588 5.6338 86.9914 5.9648H88.7209C88.7166 4.98956 88.0075 4.16324 87.0241 3.87019C86.8309 3.78996 86.6306 3.73519 86.4231 3.70588C86.3049 3.68907 86.1848 3.68042 86.0623 3.68042H83.2653C82.3794 3.68042 81.6045 4.09598 81.1649 4.71956C80.9242 5.06114 80.783 5.46421 80.783 5.89707V7.44497C80.783 7.89945 81.1514 8.26841 81.6064 8.26841H87.0591V8.55041C87.0553 8.81032 86.9448 9.0438 86.7694 9.21051C86.5638 9.38057 86.3279 9.46657 86.0623 9.46657H83.4229C83.3926 9.46657 83.3652 9.46561 83.3364 9.46513C82.9612 9.44975 82.6455 9.21195 82.5129 8.88094H80.7834C80.7878 9.85619 81.4969 10.6825 82.4803 10.9756C82.6734 11.0558 82.8737 11.1106 83.0813 11.1399C83.1995 11.1567 83.3196 11.1653 83.4421 11.1653H86.2391C87.125 11.1653 87.8999 10.7498 88.3394 10.1262C88.5801 9.7846 88.7214 9.38153 88.7214 8.94868V7.40077C88.7214 6.9463 88.3529 6.57734 87.8979 6.57734H87.0606Z" fill="white"></path><path d="M42.8474 15.4603H39.8165C38.4189 15.4603 37.2861 16.4639 37.2861 17.702V20.7353C37.2861 20.7353 37.2861 20.7382 37.2861 20.7396C37.289 21.9753 38.4204 22.976 39.816 22.976H43.5906V23.5102C43.5906 24.0238 43.1746 24.4398 42.661 24.4398H39.8929C39.4062 24.4398 39.0089 24.0603 38.9782 23.5813H37.2856V23.7499C37.2856 23.8018 37.2904 23.8523 37.2943 23.9032H37.2953C37.2953 23.9032 37.2953 23.9041 37.2953 23.9046H37.2943C37.2943 23.9099 37.2957 23.9147 37.2962 23.92C37.2996 23.9575 37.3053 23.994 37.3111 24.031C37.3149 24.0564 37.3198 24.0814 37.3241 24.1069C37.326 24.1184 37.3279 24.1304 37.3303 24.142C37.3332 24.1549 37.3366 24.1679 37.3395 24.1804C37.3428 24.1948 37.3462 24.2097 37.35 24.2241C37.3553 24.2452 37.3591 24.2669 37.3654 24.288C37.375 24.3207 37.3865 24.3529 37.3971 24.385C37.3985 24.3884 37.3995 24.3923 37.4005 24.3961C37.4077 24.4172 37.4134 24.4384 37.4211 24.459C37.4519 24.5402 37.4865 24.62 37.5273 24.6968C37.56 24.7574 37.595 24.8169 37.6335 24.8746C37.7103 24.9899 37.7982 25.0985 37.8967 25.1989C38.0932 25.4002 38.3301 25.5702 38.5962 25.6995C38.7293 25.7638 38.8696 25.8181 39.0161 25.8614C39.0891 25.883 39.1641 25.9012 39.24 25.9171C39.3923 25.9483 39.5494 25.9671 39.7108 25.9733C39.7459 25.9747 39.78 25.9781 39.8155 25.9781H42.8465C44.244 25.9781 45.3768 24.9812 45.3768 23.7523V17.7029C45.3768 16.4649 44.244 15.4613 42.8465 15.4613L42.8474 15.4603ZM43.6358 18.5739V20.3971C43.6358 20.9044 43.2246 21.3161 42.7168 21.3161H39.9351C39.4278 21.3161 39.0161 20.9049 39.0161 20.3971V18.0724C39.0161 17.565 39.4273 17.1533 39.9351 17.1533H42.7168C42.7326 17.1533 42.748 17.1548 42.7638 17.1557C42.7744 17.1562 42.785 17.1562 42.7956 17.1572C43.2659 17.197 43.6358 17.591 43.6358 18.0719V18.5734V18.5739Z" fill="white"></path><path d="M33.925 6.84468C33.925 6.06544 34.5659 5.43369 35.3566 5.43369H36.4861C37.273 5.43369 37.9134 6.06352 37.9182 6.83747V11.1776H39.6376V6.83747C39.642 6.06208 40.2814 5.43369 41.0693 5.43369H42.1992C42.99 5.43369 43.6313 6.06544 43.6313 6.84516V11.178H45.3493V6.84516C45.3493 5.13007 43.9383 3.73926 42.1983 3.73926H41.0698C40.1666 3.73926 39.3532 4.11783 38.7782 4.71883C38.2031 4.11735 37.3903 3.73926 36.4866 3.73926H35.3566C33.6199 3.73926 32.207 5.13151 32.207 6.84516V22.8882H33.925V6.84468Z" fill="white"></path><path d="M33.9255 22.8876H32.2075V22.9174H33.9255V22.8876Z" fill="white"></path></svg>