<svg xmlns="http://www.w3.org/2000/svg" width="90" height="20" viewBox="0 0 90 20" fill="none"><g clip-path="url(#clip0_6738_1978)"><path d="M11.0845 9.63501C10.5384 9.31285 10.0299 9.03473 9.54544 8.72012C9.3076 8.5666 9.1289 8.52255 8.8747 8.69621C6.74038 10.1648 5.44545 12.1733 5.19754 14.7342C4.98612 16.9176 6.50506 18.3937 8.72242 18.5259C9.43848 18.5687 9.89529 18.3761 10.6113 18.4177C8.13599 19.1589 5.71098 19.2923 3.53892 17.5997C1.76704 16.2204 0.993097 14.2837 0.790488 12.1179C0.526216 9.2902 1.25485 6.76325 3.32372 4.6667C2.78008 4.30804 2.26286 3.967 1.63868 3.55549C2.74862 3.295 3.75033 3.05967 4.75079 2.82308C6.45849 2.42038 8.16745 2.02272 9.87389 1.61121C10.1533 1.54451 10.3206 1.49669 10.3634 1.89184C10.5623 3.72916 10.7926 5.56019 10.8605 7.41135C10.8869 8.11985 11.1323 8.8208 11.0833 9.63501H11.0845Z" fill="#B4B4B4"></path><path d="M43.2592 17.2561C43.8142 16.8849 44.1099 16.2934 44.4963 15.7825C45.4024 14.5857 46.2845 13.3713 47.1604 12.1519C47.3177 11.9329 47.6034 11.7605 47.4888 11.3943C47.4234 11.1867 47.6424 11.2571 47.7393 11.2534C48.0526 11.242 48.3672 11.2483 48.6806 11.2483C50.2813 11.2483 50.2725 11.2496 50.5267 12.8516C50.7218 14.0836 50.942 15.3118 51.1522 16.5413C51.1736 16.6634 51.1899 16.7905 51.234 16.905C51.2981 17.0711 51.2931 17.3367 51.5033 17.3518C51.7159 17.3669 51.7814 17.1202 51.8267 16.944C52.2923 15.1344 52.8611 13.3487 53.1115 11.4912C53.148 11.2194 53.2487 11.2496 53.4035 11.2483C54.2404 11.2446 55.0785 11.266 55.9154 11.2383C56.308 11.2257 56.4112 11.378 56.4338 11.7379C56.4967 12.7043 56.5962 13.6683 56.6981 14.811C57.3953 13.6721 58.0107 12.6892 58.5971 11.6913C58.7858 11.3704 58.9922 11.2219 59.3861 11.237C60.257 11.271 61.1291 11.2471 61.9798 11.2471C61.4122 13.2644 60.8182 15.23 60.525 17.2649C60.4847 17.5456 60.3438 17.4927 60.1953 17.494C59.4226 17.5003 58.6512 17.4965 57.8345 17.4965C58.3718 16.0732 58.6235 14.6272 59.0149 13.1448C58.6625 13.2228 58.6134 13.4695 58.5065 13.6419C57.7854 14.8122 57.0781 15.9926 56.3608 17.1655C56.1809 17.46 54.7614 17.6576 54.5323 17.4235C54.4027 17.2914 54.453 17.1076 54.4367 16.9465C54.3033 15.6151 54.1749 14.2824 53.9786 12.9422C53.5948 14.3214 53.1581 15.678 52.9329 17.0875C52.9014 17.2876 52.9819 17.5028 52.6422 17.5003C51.244 17.4902 49.8459 17.4965 48.4188 17.4965C48.4729 17.309 48.5233 17.1756 48.5485 17.0372C48.7322 16.043 48.5057 15.7674 47.514 15.7674C47.2422 15.7674 46.9704 15.7674 46.6973 15.7674C45.5471 15.7674 45.1242 16.0757 44.8512 17.2209C44.7757 17.5393 44.602 17.4952 44.4032 17.4965C43.4002 17.5003 42.3959 17.5191 41.3942 17.4877C40.955 17.4738 40.682 17.6261 40.5095 18.0024C40.536 18.0414 40.5511 18.093 40.575 18.0955C40.9714 18.1496 41.437 18.1622 41.4735 18.6819C41.5062 19.1526 41.1501 19.4307 40.7499 19.6069C40.2289 19.8359 39.6916 19.817 39.158 19.6358C39.0107 19.5855 38.7867 19.5842 38.8912 19.3288C38.9629 19.1551 39.1064 19.0746 39.2977 19.1362C39.5997 19.2319 39.9042 19.3212 40.2113 19.1702C40.3434 19.106 40.4693 19.0104 40.4567 18.8405C40.4466 18.6933 40.3258 18.6492 40.1975 18.6165C39.7562 18.5041 39.684 18.2608 39.981 17.8866C40.0553 17.7935 40.1232 17.6953 40.273 17.4927C39.7847 17.4927 39.3983 17.5116 39.0145 17.4889C38.1386 17.4386 37.7271 16.9692 37.9033 16.1336C38.1386 15.0161 38.4029 13.8999 38.7263 12.805C39.0661 11.6561 39.6626 11.2546 40.8455 11.2483C41.9127 11.2433 42.9811 11.2584 44.047 11.2408C44.4094 11.2345 44.5743 11.3477 44.4535 11.7051C44.3629 11.9719 44.5944 12.4954 43.9287 12.3394C43.2102 12.1708 42.4702 12.2878 41.739 12.2727C41.3993 12.2652 41.2029 12.4552 41.1224 12.7824C40.8707 13.813 40.6153 14.8424 40.356 15.8706C40.2453 16.3085 40.4089 16.4847 40.8594 16.4822C41.6963 16.4759 42.5331 16.496 43.3624 16.3576C43.3813 16.3777 43.4002 16.3966 43.4191 16.4155C43.3511 16.6798 43.2819 16.9428 43.2152 17.2083C43.1485 17.2435 43.1221 17.2863 43.1888 17.3467C43.2114 17.3165 43.2353 17.2851 43.258 17.2549L43.2592 17.2561ZM46.4305 14.7481C47.0471 14.7481 47.5203 14.7481 47.9935 14.7481C48.1546 14.7481 48.3031 14.7191 48.2515 14.5115C48.1118 13.9515 48.1281 13.3537 47.8538 12.7459C47.3768 13.4179 46.9477 14.0207 46.4305 14.7481Z" fill="#B4B4B4"></path><path d="M54.7473 8.74905C55.3199 6.75065 55.8976 4.80384 56.2034 2.79034C56.2348 2.58396 56.2826 2.49587 56.4966 2.49838C57.2869 2.50468 58.0759 2.5009 58.8952 2.5009C58.3012 4.06766 58.0545 5.67468 57.604 7.22885C57.492 7.61519 57.6116 7.75236 58.0193 7.73726C58.8272 7.70958 59.6364 7.7725 60.4242 7.61268C60.5173 7.91848 60.2845 8.08837 60.2857 8.36774C60.5941 8.29853 60.7086 8.04684 60.8558 7.84801C61.9834 6.32278 63.1059 4.79378 64.2297 3.26603C64.2788 3.19933 64.3669 3.13138 64.3694 3.06216C64.3958 2.31088 64.9495 2.51097 65.3812 2.5009C65.736 2.49209 66.0997 2.5462 66.4471 2.48957C67.1165 2.38009 67.2739 2.71609 67.3657 3.2912C67.6539 5.09328 67.8804 6.90669 68.3435 8.71381H65.3925C65.4302 8.58545 65.4705 8.47471 65.4932 8.36145C65.7121 7.29933 65.4869 7.01744 64.4235 7.01744C64.1718 7.01744 63.9214 7.01744 63.6697 7.01744C62.5169 7.01744 62.084 7.34086 61.8097 8.45835C61.7619 8.65466 61.7141 8.75031 61.5026 8.75031C59.2488 8.74653 56.9962 8.74779 54.7461 8.74779L54.7473 8.74905ZM64.8715 3.91664C64.3417 4.66164 63.905 5.2745 63.3903 5.99936C63.9918 5.99936 64.4612 5.99055 64.9281 6.00314C65.1899 6.00943 65.2503 5.89365 65.2037 5.6621C65.0993 5.13985 65.0036 4.61508 64.8702 3.9179L64.8715 3.91664Z" fill="white"></path><path d="M20.0745 11.2493C19.4855 12.7884 19.2452 14.3765 18.7984 15.9093C18.6688 16.3535 18.7733 16.5083 19.2489 16.4869C20.038 16.453 20.8321 16.5197 21.5972 16.3636C21.723 16.6682 21.4147 16.8494 21.4864 17.1174C21.7683 17.0406 21.8803 16.8041 22.0225 16.6115C23.1514 15.0863 24.2739 13.556 25.3989 12.027C25.4606 11.9427 25.5776 11.8546 25.5739 11.7741C25.5374 11.0782 26.0395 11.2594 26.417 11.2518C26.8776 11.2418 27.342 11.2883 27.7975 11.2392C28.2908 11.1864 28.4343 11.3991 28.5035 11.8433C28.7451 13.405 29.0195 14.963 29.2925 16.5197C29.3454 16.8229 29.4448 17.1187 29.5329 17.4585H26.6045C26.5315 17.3125 26.6637 17.1992 26.6876 17.0671C26.8738 16.0465 26.6486 15.7684 25.6179 15.7684C25.3461 15.7684 25.073 15.7684 24.8012 15.7684C23.7126 15.7684 23.2344 16.127 22.989 17.1942C22.9349 17.432 22.8581 17.5012 22.6316 17.5012C20.3954 17.4962 18.1579 17.4987 15.9053 17.4987C16.5068 15.7268 16.8743 13.9373 17.3122 12.1655C17.5375 11.2531 17.5173 11.2481 18.4813 11.2481H20.0757L20.0745 11.2493ZM24.5671 14.7478C25.1787 14.7478 25.6494 14.7478 26.1213 14.7478C26.2748 14.7478 26.4384 14.7352 26.3906 14.5213C26.2622 13.955 26.2584 13.3572 25.9967 12.7406C25.521 13.4088 25.0906 14.0128 24.5671 14.7465V14.7478Z" fill="#B4B4B4"></path><path d="M47.9074 2.49961C47.3449 4.51563 46.7472 6.48005 46.4539 8.51494C46.4137 8.79432 46.2752 8.7465 46.1268 8.7465C45.3541 8.75279 44.5826 8.74901 43.7596 8.74901C44.3146 7.32824 44.5348 5.87474 44.9451 4.43131C44.5889 4.44264 44.5625 4.69055 44.4669 4.84659C43.7672 5.98171 43.0813 7.12563 42.3892 8.26452C42.1463 8.6647 40.8766 8.96672 40.5015 8.71252C40.3354 8.59926 40.3858 8.41301 40.3694 8.25445C40.236 6.90918 40.1076 5.56516 39.9768 4.22618C39.8471 4.18843 39.8195 4.27904 39.8044 4.34825C39.5011 5.72624 39.0153 7.06522 38.8656 8.47719C38.8404 8.71252 38.7448 8.75153 38.5547 8.74901C38.2238 8.74524 37.8915 8.74901 37.5845 8.74901C38.1457 6.72922 38.7661 4.75221 39.0342 2.69215C39.0669 2.43668 39.2091 2.5059 39.3274 2.50464C40.2058 2.49709 41.0855 2.51219 41.9638 2.49583C42.3477 2.48828 42.3351 2.73116 42.3565 2.98662C42.4383 3.9531 42.5251 4.91958 42.6258 6.06225C43.2776 4.99887 43.8779 4.10412 44.3876 3.16029C44.6783 2.62168 45.0294 2.44549 45.6246 2.48702C46.3885 2.54114 47.1599 2.50087 47.9074 2.50087V2.49961Z" fill="white"></path><path d="M29.9014 8.7503C30.4702 6.73554 31.073 4.79251 31.3247 2.76768C31.3536 2.53109 31.4543 2.49963 31.6393 2.50089C33.3973 2.50844 35.1566 2.48705 36.9147 2.53613C37.6848 2.55752 37.9718 3.02314 37.8006 3.77946C37.7 4.22621 37.5842 4.66918 37.4621 5.11089C37.3438 5.53876 37.1085 5.88231 36.6378 5.9553C36.2968 6.00816 36.3119 6.19567 36.3723 6.44358C36.5523 7.19109 36.7272 7.9386 36.9197 8.75155C36.1156 8.75155 35.3479 8.74401 34.579 8.75533C34.2996 8.75911 34.2367 8.61439 34.2002 8.37654C34.097 7.69824 33.9574 7.02498 33.8592 6.34542C33.8214 6.08618 33.7245 5.98802 33.4603 5.99683C33.2337 6.00438 33.0462 6.01823 32.9921 6.28879C32.86 6.96206 32.5781 7.60638 32.5655 8.29852C32.5592 8.64081 32.4799 8.77295 32.1137 8.75911C31.3826 8.73268 30.6502 8.75155 29.9001 8.75155L29.9014 8.7503ZM34.16 4.9775C34.3462 4.9775 34.5337 4.98253 34.72 4.9775C35.1453 4.96365 35.1818 4.63394 35.2422 4.32814C35.2913 4.07897 35.5166 3.73164 35.2347 3.59951C34.8055 3.39942 34.2946 3.49002 33.829 3.55169C33.5232 3.59196 33.5937 3.95187 33.5307 4.17335C33.3042 4.98001 33.3143 4.98253 34.16 4.97876V4.9775Z" fill="white"></path><path d="M72.3706 8.73258C72.9483 6.74299 73.5183 4.77479 73.8153 2.74242C73.8518 2.49073 73.9902 2.5008 74.1576 2.5008C75.7873 2.50457 77.4182 2.48066 79.0467 2.52596C79.9779 2.55113 80.3504 3.02682 80.1591 3.92157C79.9125 5.07808 79.613 6.22577 79.2908 7.3634C79.0504 8.21662 78.4325 8.7049 77.5453 8.72252C75.8162 8.75649 74.0872 8.73258 72.3694 8.73258H72.3706ZM76.9073 3.51887C76.6292 3.60067 76.1812 3.30368 76.0465 3.90018C75.7898 5.03152 75.484 6.15153 75.2046 7.27909C75.1719 7.41248 75.1015 7.56475 75.2386 7.68305C75.6086 8.00269 76.8268 7.62767 76.9551 7.14569C77.1942 6.24465 77.422 5.33983 77.6485 4.43502C77.875 3.53523 77.8612 3.52013 76.9061 3.52013L76.9073 3.51887Z" fill="white"></path><path d="M25.7426 8.74419C25.0945 8.74419 24.4464 8.7681 23.7995 8.7379C22.9287 8.69763 22.5248 8.21565 22.7009 7.37753C22.9312 6.28143 23.1892 5.18911 23.5026 4.1144C23.8549 2.90378 24.4451 2.50486 25.701 2.50108C26.8286 2.49731 27.9574 2.48975 29.085 2.5036C30.1056 2.51618 30.5108 2.96796 30.3107 3.9659C30.0867 5.0834 29.8161 6.19586 29.4927 7.28818C29.1831 8.32891 28.5426 8.74042 27.4327 8.75049C26.8689 8.75552 26.3051 8.75049 25.7401 8.75049C25.7401 8.74797 25.7401 8.74671 25.7401 8.74419H25.7426ZM26.022 7.72863C26.9909 7.73115 27.0035 7.72234 27.2439 6.78229C27.4188 6.0977 27.5887 5.41185 27.7624 4.726C28.0732 3.49399 28.0732 3.50154 26.7657 3.51538C26.3517 3.51916 26.027 3.58837 25.915 4.05903C25.6646 5.10982 25.4053 6.15936 25.1297 7.20387C25.0316 7.57511 25.1826 7.71102 25.5211 7.72738C25.6885 7.73619 25.8558 7.72863 26.0232 7.72863H26.022Z" fill="white"></path><path d="M84.9023 17.4929C84.2555 17.4929 83.6061 17.5193 82.9605 17.4866C82.0972 17.4425 81.7034 16.9555 81.8833 16.1098C82.1161 15.015 82.3741 13.9214 82.6887 12.8467C83.0398 11.6462 83.63 11.2523 84.8985 11.2498C86.006 11.2472 87.1121 11.2409 88.2195 11.2523C89.2905 11.2636 89.6957 11.7015 89.4893 12.7322C89.2653 13.8497 88.9922 14.9609 88.6638 16.052C88.3567 17.0738 87.725 17.4841 86.6566 17.4979C86.0714 17.5054 85.4875 17.4992 84.9023 17.4992C84.9023 17.4966 84.9023 17.4941 84.9023 17.4916V17.4929ZM86.2274 12.2703C85.2232 12.2703 85.2169 12.2754 84.974 13.257C84.7639 14.1039 84.5739 14.9571 84.336 15.7965C84.1951 16.2948 84.3222 16.5125 84.8495 16.4823C85.0584 16.471 85.2685 16.4672 85.4762 16.4823C85.9783 16.5188 86.2438 16.3074 86.352 15.8066C86.5358 14.9533 86.7698 14.1114 86.98 13.2645C87.2216 12.2917 87.204 12.2703 86.2274 12.2703Z" fill="#B4B4B4"></path><path d="M32.1043 12.6554C31.7671 14.2057 31.2373 15.6731 31.0611 17.221C31.0347 17.45 30.9629 17.5029 30.7654 17.5003C30.4319 17.4953 30.0971 17.4991 29.7725 17.4991C30.3388 15.507 30.9227 13.5438 31.2209 11.5127C31.2562 11.2723 31.3518 11.2497 31.5318 11.2497C32.4315 11.2497 33.3326 11.266 34.2324 11.2421C34.6024 11.2321 34.6237 11.4749 34.6841 11.7115C35.0277 13.0631 35.3687 14.4146 35.711 15.7662C35.7463 15.9046 35.7475 16.0582 35.93 16.1815C36.2647 14.6273 36.8021 13.1424 36.9833 11.5756C37.011 11.339 37.0513 11.2383 37.2967 11.2484C37.6276 11.261 37.9599 11.2509 38.3047 11.2509C37.6604 13.0719 37.2979 14.9281 36.8575 16.7604C36.7115 17.3695 36.4611 17.5721 35.8558 17.5117C35.3373 17.4588 34.8062 17.4613 34.2877 17.5117C33.7114 17.567 33.4433 17.4022 33.3213 16.7944C33.0834 15.6127 32.7449 14.4511 32.4404 13.2833C32.385 13.0732 32.3799 12.8252 32.1056 12.6554H32.1043Z" fill="#B4B4B4"></path><path d="M69.6583 12.6591C69.3474 14.2346 68.7774 15.7007 68.6276 17.2624C68.6075 17.4688 68.5156 17.5003 68.3533 17.5003C68.0185 17.5003 67.6851 17.5003 67.3188 17.5003C67.9053 15.814 68.2312 14.0912 68.6666 12.3961C68.7572 12.0412 68.6603 11.5026 68.8718 11.3453C69.2178 11.0885 69.7539 11.271 70.2107 11.2559C70.6499 11.2408 71.0929 11.2849 71.5283 11.2446C71.9864 11.2018 72.1814 11.3616 72.2846 11.8147C72.5867 13.1322 72.9415 14.4385 73.275 15.7498C73.3103 15.8895 73.314 16.0405 73.4915 16.1902C73.8426 14.6361 74.3573 13.1549 74.5486 11.5995C74.5826 11.3251 74.643 11.237 74.9072 11.2496C75.2193 11.2647 75.5339 11.2534 75.8599 11.2534C75.2181 13.1461 74.8519 15.0803 74.3586 16.9831C74.2591 17.3656 74.1257 17.538 73.6979 17.5141C72.9881 17.4751 72.2746 17.4852 71.5636 17.5116C71.2062 17.5242 71.0577 17.4172 70.9721 17.0573C70.6776 15.8014 70.3416 14.5555 70.0132 13.3084C69.9578 13.0983 69.9666 12.8466 69.6608 12.6628L69.6583 12.6591Z" fill="#B4B4B4"></path><path d="M55.5315 2.50083C54.9577 3.95684 54.7198 5.43802 54.3259 6.87642C53.9245 8.3425 53.4224 8.74646 51.8833 8.75024C50.8992 8.75275 49.9151 8.75904 48.931 8.74898C47.7368 8.73639 47.3001 8.20156 47.5643 7.02114C47.8236 5.86463 48.1344 4.71946 48.4138 3.56673C48.4956 3.23072 48.4327 2.70595 48.6302 2.58766C48.9272 2.41022 49.3941 2.50964 49.7893 2.50334C50.2486 2.49579 50.7079 2.50209 51.2075 2.50209C50.6588 3.97824 50.3933 5.48836 50.0057 6.96829C49.8484 7.5673 49.9642 7.71202 50.5921 7.7309C51.1358 7.746 51.682 7.71328 52.2256 7.73971C52.8196 7.76865 53.1631 7.55346 53.2739 6.9406C53.5306 5.53115 54.0667 4.17959 54.1925 2.74245C54.2152 2.48195 54.3675 2.50586 54.5311 2.50334C54.8444 2.50083 55.1578 2.50334 55.5315 2.50334V2.50083Z" fill="white"></path><path d="M79.7771 8.75023C80.366 6.76315 80.9097 4.80628 81.2268 2.7953C81.2684 2.52851 81.3728 2.4983 81.5804 2.4983C83.1711 2.50082 84.7618 2.50585 86.3524 2.49453C86.7149 2.49201 86.7514 2.70721 86.6482 2.92869C86.5387 3.16654 86.8684 3.72277 86.2253 3.60321C85.4967 3.46856 84.7643 3.53274 84.0344 3.52141C83.6669 3.51512 83.0792 4.58605 83.273 4.89689C83.3523 5.02399 83.497 4.9812 83.6128 4.97869C84.2597 4.95855 84.9128 5.05419 85.5521 4.90696C85.9586 4.81383 86.0164 4.97365 85.9435 5.33105C85.8365 5.86211 85.7207 6.29753 84.9984 6.02068C84.7605 5.93007 84.4597 6.00054 84.1879 6.00054C82.8716 6.00054 82.8817 6.0018 82.6149 7.28415C82.5469 7.61134 82.6036 7.75229 82.9622 7.73341C83.6921 7.69566 84.4283 7.80263 85.1544 7.6642C85.5508 7.58869 85.6918 7.63525 85.5319 8.08955C85.3532 8.5967 85.089 8.78043 84.5302 8.76533C82.9459 8.72129 81.359 8.75023 79.7771 8.75023Z" fill="white"></path><path d="M67.1442 16.3611C66.9441 17.4434 66.8812 17.5 65.9223 17.5C64.3819 17.5 62.8404 17.5 61.3088 17.5C61.8965 15.5117 62.4377 13.5561 62.7573 11.5476C62.7988 11.2833 62.8932 11.2481 63.1046 11.2481C64.694 11.2506 66.2822 11.2569 67.8716 11.2431C68.2252 11.2405 68.2869 11.4394 68.1774 11.6672C68.0629 11.9037 68.4127 12.4638 67.7697 12.353C67.1656 12.2486 66.5565 12.3266 65.9588 12.2574C65.288 12.1793 64.9835 12.4096 64.874 13.0791C64.7972 13.551 64.7544 13.8128 65.3736 13.7411C65.9512 13.6731 66.5439 13.7889 67.1216 13.6555C67.416 13.5875 67.5444 13.6505 67.4915 13.9928C67.372 14.7617 67.3217 14.8007 66.5024 14.7591C65.9814 14.7327 65.4554 14.778 64.9357 14.7428C64.5569 14.7176 64.4386 14.885 64.3543 15.216C64.0321 16.4845 64.022 16.4731 65.3333 16.4857C65.9336 16.492 66.5326 16.4555 67.1442 16.3637V16.3611Z" fill="#B4B4B4"></path><path d="M16.3304 8.75055C16.9181 6.75467 17.463 4.7978 17.7789 2.78556C17.8128 2.56659 17.8783 2.49989 18.0784 2.49989C19.6904 2.50241 21.3012 2.50618 22.9133 2.49611C23.2883 2.4936 23.287 2.72389 23.1952 2.9416C23.0932 3.18196 23.394 3.72687 22.7598 3.60354C22.1985 3.49406 21.6347 3.51419 21.0709 3.523C19.9547 3.5381 20.2152 3.33046 19.8704 4.48696C19.7307 4.95762 19.9157 5.00922 20.3045 4.98656C20.93 4.95007 21.5605 5.04194 22.1809 4.89847C22.464 4.83303 22.5509 4.93371 22.5144 5.22441C22.42 5.9757 22.3206 6.03988 21.5378 6.01471C20.8721 5.99331 19.9925 5.72527 19.591 6.10783C19.099 6.57597 19.0549 7.47953 19.0058 8.22201C18.9769 8.66372 18.8624 8.78327 18.432 8.76188C17.7298 8.72664 17.0238 8.75181 16.3279 8.75181L16.3304 8.75055Z" fill="white"></path><path d="M76.5631 17.5002C77.1432 15.8881 77.4226 14.271 77.8668 12.698C77.9663 12.3444 77.8631 12.245 77.5245 12.2676C77.254 12.2865 76.9796 12.3066 76.7116 12.2815C76.4939 12.2613 76.0736 12.5873 76.0987 12.1896C76.1201 11.8611 76.1164 11.2483 76.7707 11.2495C77.858 11.2508 78.9441 11.2495 80.0314 11.2495C80.6379 11.2495 81.2458 11.2835 81.8485 11.2395C82.3846 11.2005 82.5143 11.3955 82.3783 11.8775C82.328 12.0537 82.328 12.245 82.3053 12.4186C82.1518 12.508 82.0574 12.3859 81.9492 12.3557C80.7134 12.0235 80.3749 12.1921 80.1018 13.4166C79.8124 14.7102 79.3354 15.9636 79.2448 17.2988C79.2247 17.5883 79.0208 17.4926 78.8824 17.4952C78.1311 17.5052 77.3798 17.5002 76.5618 17.5002H76.5631Z" fill="#B4B4B4"></path><path d="M13.2204 13.4722C13.5413 14.8187 12.4779 16.7856 11.0421 17.6754C9.58353 18.5802 8.05075 18.37 6.35815 16.9593C9.81131 18.1296 12.23 17.284 13.2204 13.4722Z" fill="white"></path><path d="M26.571 2.03412C27.2128 0.705207 28.2687 0.369204 29.5963 0.693881C28.533 1.83403 27.6546 2.22792 26.571 2.03412Z" fill="white"></path><path d="M43.3643 16.3603C43.3869 16.3389 43.4259 16.2962 43.4322 16.3012C43.4914 16.3427 43.4674 16.383 43.4209 16.4195C43.402 16.4006 43.3831 16.3817 43.3643 16.3616V16.3603Z" fill="#B4B4B4"></path><path d="M43.2598 17.256C43.2371 17.2862 43.2132 17.3177 43.1906 17.3479C43.1239 17.2875 43.1503 17.2447 43.217 17.2095C43.2308 17.2246 43.2447 17.2397 43.2585 17.256H43.2598Z" fill="#FDFDFD"></path></g><defs><clipPath id="clip0_6738_1978"><rect width="88.8017" height="19.2" fill="white" transform="translate(0.737549 0.578247)"></rect></clipPath></defs></svg>