<svg xmlns="http://www.w3.org/2000/svg" width="98" height="10" viewBox="0 0 98 10" fill="none"><g clip-path="url(#clip0_6738_1904)"><path d="M0.597933 1.11487H2.22698C2.33086 1.11487 2.41585 1.19832 2.41585 1.30032V7.8377C2.41585 7.93971 2.50085 8.02317 2.60473 8.02317H6.57583C6.67971 8.02317 6.7647 8.10662 6.7647 8.20858V9.44192C6.7647 9.54387 6.67971 9.62733 6.57583 9.62733H0.597933C0.494052 9.62733 0.409058 9.54387 0.409058 9.44192V1.30032C0.409058 1.19832 0.494052 1.11487 0.597933 1.11487Z" fill="white"></path><path d="M10.5577 1.11487H12.1868C12.2907 1.11487 12.3757 1.19832 12.3757 1.30032V9.44192C12.3757 9.54387 12.2907 9.62733 12.1868 9.62733H10.5577C10.4539 9.62733 10.3689 9.54387 10.3689 9.44192V1.30032C10.3689 1.19832 10.4539 1.11487 10.5577 1.11487Z" fill="white"></path><path d="M22.9567 5.23671H24.411C24.5149 5.23671 24.5999 5.32016 24.5999 5.42216V8.59812C24.5999 8.65841 24.5716 8.71403 24.5244 8.75115C23.5753 9.41879 22.3004 9.77579 21.0963 9.77579C18.3717 9.77579 16.365 7.93975 16.365 5.37116C16.365 2.80258 18.3717 0.966553 21.1341 0.966553C22.5837 0.966553 23.7972 1.43019 24.6377 2.30185C24.7085 2.37603 24.7038 2.49657 24.6282 2.56148L23.613 3.48413C23.5375 3.55368 23.4242 3.54905 23.3486 3.4795C22.7442 2.90922 22.0548 2.64494 21.2332 2.64494C19.5475 2.64494 18.3954 3.75305 18.3954 5.37116C18.3954 6.98929 19.5475 8.09739 21.2096 8.09739C21.7196 8.09739 22.1918 8.01393 22.6639 7.78673C22.73 7.75428 22.7679 7.68939 22.7679 7.61982V5.4268C22.7679 5.3248 22.8528 5.24134 22.9567 5.24134" fill="white"></path><path d="M36.8904 1.30032V9.44192C36.8904 9.54387 36.8054 9.62733 36.7015 9.62733H35.0724C34.9686 9.62733 34.8836 9.54387 34.8836 9.44192V6.32157C34.8836 6.21958 34.7986 6.13612 34.6947 6.13612H31.1344C31.0305 6.13612 30.9455 6.21958 30.9455 6.32157V9.44192C30.9455 9.54387 30.8605 9.62733 30.7566 9.62733H29.1276C29.0237 9.62733 28.9387 9.54387 28.9387 9.44192V1.30032C28.9387 1.19832 29.0237 1.11487 29.1276 1.11487H30.7566C30.8605 1.11487 30.9455 1.19832 30.9455 1.30032V4.28618C30.9455 4.38819 31.0305 4.47164 31.1344 4.47164H34.6947C34.7986 4.47164 34.8836 4.38819 34.8836 4.28618V1.30032C34.8836 1.19832 34.9686 1.11487 35.0724 1.11487H36.7015C36.8054 1.11487 36.8904 1.19832 36.8904 1.30032Z" fill="white"></path><path d="M43.0307 2.71907H40.632C40.5281 2.71907 40.4431 2.63561 40.4431 2.53361V1.29568C40.4431 1.19368 40.5281 1.11023 40.632 1.11023H47.8092C47.9131 1.11023 47.9981 1.19368 47.9981 1.29568V2.52898C47.9981 2.63098 47.9131 2.71443 47.8092 2.71443H45.4105C45.3067 2.71443 45.2217 2.79788 45.2217 2.89989V9.43726C45.2217 9.53927 45.1366 9.62273 45.0328 9.62273H43.4037C43.2998 9.62273 43.2149 9.53927 43.2149 9.43726V2.90453C43.2149 2.80252 43.1299 2.71907 43.0259 2.71907" fill="white"></path><path d="M57.1988 8.27811C56.6794 8.65366 56.0419 8.84374 55.2817 8.84374C54.734 8.84374 54.2524 8.7464 53.8415 8.55632C53.4307 8.36624 53.0907 8.10659 52.8169 7.77277C52.543 7.43894 52.34 7.06339 52.2078 6.6461C52.0756 6.22882 52.0095 5.79299 52.0095 5.33399C52.0095 4.87498 52.0803 4.4067 52.2172 3.98478C52.3542 3.56287 52.5572 3.18732 52.8216 2.86277C53.0861 2.53822 53.4213 2.28322 53.8179 2.1024C54.2193 1.91694 54.682 1.82885 55.2062 1.82885C55.6925 1.82885 56.1364 1.9123 56.5377 2.07458C56.9391 2.23685 57.2649 2.48258 57.5246 2.80713C57.756 3.09459 57.9071 3.45159 57.9826 3.86424C57.9968 3.95233 58.0723 4.02188 58.1668 4.02188H58.6673C58.7854 4.02188 58.8751 3.91988 58.8562 3.80397C58.7712 3.28932 58.5917 2.83495 58.3179 2.44549C58.0062 2.00039 57.5907 1.6573 57.0666 1.41157C56.5472 1.16583 55.9286 1.04065 55.2109 1.04065C54.4932 1.04065 53.8935 1.1612 53.3741 1.40229C52.8547 1.64339 52.4344 1.96794 52.1039 2.37131C51.7733 2.77468 51.5279 3.22441 51.372 3.72051C51.2162 4.2166 51.1406 4.71734 51.1406 5.21808V5.43135C51.1406 5.89499 51.2162 6.37255 51.3673 6.85936C51.5184 7.34621 51.7592 7.80054 52.0945 8.22249C52.425 8.63977 52.8547 8.97821 53.3835 9.23785C53.9124 9.4975 54.5498 9.62269 55.2959 9.62269C56.0419 9.62269 56.6652 9.49289 57.1941 9.23324C57.7229 8.9736 58.1432 8.61661 58.4548 8.16221C58.7239 7.77277 58.9081 7.33693 59.0073 6.86403C59.0309 6.75273 58.9365 6.64146 58.8184 6.64146H58.3179C58.2282 6.64146 58.1573 6.70637 58.1385 6.78985C58.0015 7.42966 57.6898 7.92112 57.2082 8.2735" fill="white"></path><path d="M72.1905 2.38033C71.8315 1.97697 71.3874 1.65242 70.8588 1.41132C70.3295 1.17023 69.7113 1.04504 69.0029 1.04504C68.2945 1.04504 67.6853 1.16559 67.1567 1.41132C66.6229 1.65242 66.1795 1.97697 65.8204 2.38033C65.4614 2.78371 65.1971 3.23343 65.018 3.72954C64.8381 4.22563 64.7485 4.72637 64.7485 5.22711V5.43111C64.7485 5.89939 64.8381 6.38158 65.0128 6.87766C65.1875 7.36912 65.4518 7.82812 65.8013 8.2454C66.1507 8.66268 66.5948 9.00118 67.1234 9.25155C67.6571 9.50653 68.2849 9.63171 69.0074 9.63171C69.7299 9.63171 70.3583 9.50653 70.8914 9.25155C71.4251 8.99651 71.8692 8.66268 72.2231 8.2454C72.5777 7.82812 72.842 7.37379 73.0115 6.88694C73.1818 6.39548 73.2669 5.91793 73.2669 5.44501V5.23174C73.2669 4.731 73.1773 4.23491 72.9975 3.73417C72.8183 3.23807 72.5489 2.78834 72.195 2.38497M72.1617 6.65513C72.0107 7.07241 71.7886 7.44796 71.5006 7.78179C71.2126 8.11561 70.8588 8.37526 70.4383 8.56534C70.0179 8.75542 69.5462 8.85276 69.0125 8.85276C68.4788 8.85276 68.0161 8.75542 67.5912 8.56534C67.1707 8.37526 66.8117 8.11561 66.5238 7.78179C66.2358 7.44796 66.0137 7.07702 65.8627 6.65513C65.7117 6.23785 65.6361 5.80202 65.6361 5.34302C65.6361 4.88401 65.7117 4.41573 65.8678 3.99845C66.0233 3.58117 66.2499 3.21025 66.5429 2.88107C66.8354 2.55652 67.1899 2.30152 67.6097 2.11606C68.0302 1.9306 68.4973 1.83787 69.0125 1.83787C69.527 1.83787 70.0089 1.9306 70.4287 2.11606C70.8492 2.30152 71.203 2.55652 71.4961 2.88107C71.7886 3.20562 72.0107 3.57653 72.1617 3.99845C72.3127 4.41573 72.3882 4.86546 72.3882 5.34302C72.3882 5.82057 72.3127 6.23321 72.1617 6.65513Z" fill="white"></path><path d="M83.8992 1.55075C83.4602 1.33283 82.9079 1.2262 82.2372 1.2262H79.8054V9.25187C79.8054 9.35389 79.8905 9.43735 79.9942 9.43735H80.4857C80.5894 9.43735 80.6745 9.35389 80.6745 9.25187V6.63228C80.6745 6.53027 80.7596 6.44682 80.8633 6.44682H82.2372C82.9079 6.44682 83.4602 6.34018 83.8992 6.12227C84.3388 5.90435 84.6645 5.60762 84.8815 5.2228C85.0991 4.83798 85.2072 4.40215 85.2072 3.91533V3.75769C85.2072 3.26623 85.0991 2.82577 84.8815 2.44558C84.6645 2.06539 84.3388 1.76402 83.8992 1.55075ZM84.1123 4.77306C83.9753 5.05125 83.7673 5.27844 83.4838 5.44535C83.2003 5.61226 82.8369 5.69571 82.3882 5.69571H80.8677C80.7641 5.69571 80.6789 5.61226 80.6789 5.51026V2.16276C80.6789 2.06076 80.7641 1.9773 80.8677 1.9773H82.3882C82.8369 1.9773 83.2003 2.06076 83.4838 2.22303C83.7673 2.38531 83.9753 2.60785 84.1123 2.89068C84.2486 3.16886 84.3151 3.48414 84.3151 3.83651C84.3151 4.18888 84.2441 4.49024 84.1123 4.77306Z" fill="white"></path><path d="M97.3589 1.25842H96.6223C96.5513 1.25842 96.4854 1.30015 96.4521 1.36042L94.3934 5.45439C94.3608 5.5193 94.2942 5.55639 94.2238 5.55639H93.7797C93.7087 5.55639 93.6427 5.5193 93.6146 5.45439L91.4375 1.35115C91.4048 1.29087 91.3383 1.24915 91.2724 1.24915H90.4744L93.1564 6.22404H93.5672V9.24237C93.5672 9.34438 93.6523 9.42784 93.756 9.42784H94.2328C94.3371 9.42784 94.4222 9.34438 94.4222 9.24237V6.22404H94.842L97.3634 1.24915L97.3589 1.25842Z" fill="white"></path></g><defs><clipPath id="clip0_6738_1904"><rect width="97.272" height="9.6" fill="white" transform="translate(0.37854 0.378174)"></rect></clipPath></defs></svg>