<svg xmlns="http://www.w3.org/2000/svg" width="56" height="33" viewBox="0 0 56 33" fill="none"><path d="M53.2469 16.615L55.7371 32.1783H53.2692L52.8467 29.3547H49.8452L49.4228 32.1783H47.1772L49.6674 16.615H53.2469ZM51.3349 19.3719L50.1565 27.2425H52.5132L51.3349 19.3719Z" fill="#B5B5B5"></path><path d="M46.4815 32.1783H43.9913C43.8579 31.7781 43.769 31.5335 43.769 30.2662V27.8206C43.769 26.3754 43.2799 25.8418 42.1682 25.8418H41.3233V32.1783H38.8777V16.615H42.5684C45.103 16.615 46.1924 17.7934 46.1924 20.1946V21.4174C46.1924 23.0182 45.6811 24.0631 44.5916 24.5745C45.8145 25.0859 46.2147 26.2642 46.2147 27.8873V30.2885C46.2147 31.0444 46.2369 31.6002 46.4815 32.1783ZM42.5017 18.8383H41.3233V23.6185H42.2794C43.1909 23.6185 43.7468 23.2183 43.7468 21.9732V20.4391C43.7468 19.3275 43.3688 18.8383 42.5017 18.8383Z" fill="#B5B5B5"></path><path d="M34.6436 32.1783V16.615H37.0892V32.1783H34.6436Z" fill="#B5B5B5"></path><path d="M28.9034 18.8383V23.1738H32.2607V25.3971H28.9034V29.955H33.1277V32.1783H26.4578V16.615H33.1277V18.8383H28.9034Z" fill="#B5B5B5"></path><path d="M17.3816 32.1783V16.615H21.2502C23.6958 16.615 24.8964 17.9712 24.8964 20.4614V28.3319C24.8964 30.8221 23.6958 32.1783 21.2502 32.1783H17.3816ZM21.2057 18.8383H19.8273V29.955H21.2057C21.9839 29.955 22.4508 29.5548 22.4508 28.4431V20.3502C22.4508 19.2385 21.9839 18.8383 21.2057 18.8383Z" fill="#B5B5B5"></path><path d="M13.7533 16.615L16.2434 32.1783H13.7755L13.3531 29.3547H10.3516L9.92916 32.1783H7.68359L10.1737 16.615H13.7533ZM11.8412 19.3719L10.6629 27.2425H13.0196L11.8412 19.3719Z" fill="#B5B5B5"></path><path d="M0.793701 32.1783V16.615H3.23936V29.955H7.26359V32.1783H0.793701Z" fill="#B5B5B5"></path><path d="M45.4343 12.3075L47.3818 0.349243H49.9272L51.8747 12.3075H49.9955L49.6539 9.93292V9.96709H47.5185L47.1768 12.3075H45.4343ZM47.7406 8.34418H49.4318L48.5947 2.43339H48.5606L47.7406 8.34418Z" fill="white"></path><path d="M42.6436 12.3075V0.349243H44.5227V12.3075H42.6436Z" fill="white"></path><path d="M36.7703 12.3075V0.349243H41.7415V2.05756H38.6494V5.38879H41.0752V7.09711H38.6494V12.3075H36.7703Z" fill="white"></path><path d="M32.6466 12.4781C30.8016 12.4781 29.7937 11.3848 29.7937 9.47149V3.18487C29.7937 1.27155 30.8016 0.178223 32.6466 0.178223C34.4916 0.178223 35.4995 1.27155 35.4995 3.18487V9.47149C35.4995 11.3848 34.4916 12.4781 32.6466 12.4781ZM32.6466 10.7698C33.2445 10.7698 33.6203 10.4452 33.6203 9.59107V3.06528C33.6203 2.21112 33.2445 1.88654 32.6466 1.88654C32.0487 1.88654 31.6729 2.21112 31.6729 3.06528V9.59107C31.6729 10.4452 32.0487 10.7698 32.6466 10.7698Z" fill="white"></path><path d="M26.0172 12.4781C24.1722 12.4781 23.2498 11.3848 23.2498 9.47149V8.78816H25.0264V9.60815C25.0264 10.4623 25.4022 10.7698 26.0001 10.7698C26.5981 10.7698 26.9739 10.4623 26.9739 9.57398C26.9739 8.58316 26.5981 7.95108 25.3681 6.87484C23.7964 5.4911 23.2839 4.51736 23.2839 3.1507C23.2839 1.27155 24.2577 0.178223 26.0856 0.178223C27.9135 0.178223 28.8189 1.27155 28.8189 3.18487V3.68028H27.0422V3.06528C27.0422 2.21112 26.7006 1.88654 26.1027 1.88654C25.5047 1.88654 25.1631 2.21112 25.1631 3.03112C25.1631 3.90236 25.556 4.53444 26.786 5.61068C28.3576 6.99442 28.853 7.95108 28.853 9.43732C28.853 11.3848 27.8622 12.4781 26.0172 12.4781Z" fill="white"></path><path d="M19.451 12.4784C17.6061 12.4784 16.5981 11.385 16.5981 9.47173V3.18511C16.5981 1.27179 17.6061 0.178467 19.451 0.178467C21.296 0.178467 22.3039 1.27179 22.3039 3.18511V9.47173C22.3039 11.385 21.296 12.4784 19.451 12.4784ZM19.451 10.7701C20.0489 10.7701 20.4248 10.4455 20.4248 9.59131V3.06553C20.4248 2.21137 20.0489 1.88679 19.451 1.88679C18.8531 1.88679 18.4773 2.21137 18.4773 3.06553V9.59131C18.4773 10.4455 18.8531 10.7701 19.451 10.7701Z" fill="white"></path><path d="M10.9285 12.3075V0.349243H12.8076V10.5992H15.8997V12.3075H10.9285Z" fill="white"></path><path d="M7.64331 12.3075V0.349243H9.52246V12.3075H7.64331Z" fill="white"></path><path d="M1.77026 12.3075V0.349243H6.74147V2.05756H3.64942V5.38879H6.07523V7.09711H3.64942V12.3075H1.77026Z" fill="white"></path></svg>