<svg xmlns="http://www.w3.org/2000/svg" width="222" height="57" viewBox="0 0 222 57" fill="none"><path fill-rule="evenodd" clip-rule="evenodd" d="M81.6671 52.5924C85.8857 54.983 90.8074 56.1783 96.2917 56.1783V56.0376C100.792 56.0376 104.87 55.1939 108.385 53.5768C111.901 51.8893 114.854 49.78 117.174 47.2488C119.494 44.7176 121.252 41.9755 122.518 39.0224V23.4135H93.0574V35.8585H107.401C105.291 39.374 102.127 41.1318 97.7682 41.1318C93.6199 41.1318 90.4559 40.0068 88.3466 37.8272C86.1669 35.6475 85.1123 32.3429 85.1123 27.9837C85.1123 24.1166 86.1669 21.0229 88.1356 18.773C90.1043 16.523 92.7761 15.398 96.2917 15.398C98.1198 15.398 99.8072 15.7496 101.143 16.4527C102.479 17.1558 103.534 18.1402 104.307 19.4058L104.588 19.8276H122.096L121.885 18.773C120.83 13.0075 117.947 8.36697 113.377 4.99206C108.877 1.68746 103.112 0 96.2214 0C90.7371 0 85.8154 1.19528 81.5967 3.58585C77.3781 5.97641 74.0735 9.35132 71.7533 13.57C69.5033 17.7886 68.308 22.64 68.308 28.054C68.308 33.4679 69.433 38.3896 71.7533 42.6083C74.0735 46.8972 77.4484 50.2018 81.6671 52.5924ZM82.5108 5.20299C86.4482 3.02336 91.0887 1.89839 96.2214 1.89839L96.362 1.82808C102.831 1.82808 108.244 3.44522 112.463 6.5389C116.33 9.42163 118.932 13.359 120.057 18.2105H105.643C104.729 16.8746 103.534 15.8199 102.057 15.0465C100.51 14.2028 98.6119 13.7809 96.4323 13.7809C92.4246 13.7809 89.2606 15.1168 86.9404 17.7183C84.6904 20.3198 83.4951 23.765 83.4951 28.054C83.4951 32.9054 84.7607 36.6319 87.2216 39.1631C89.6825 41.6943 93.2683 43.0302 97.9088 43.0302C103.393 43.0302 107.401 40.499 109.791 35.5069L110.354 34.2413H94.9558V25.3119H120.9V38.6709C119.705 41.3427 118.088 43.8739 115.979 46.1941C113.869 48.5847 111.057 50.5534 107.752 52.1002C104.448 53.6471 100.581 54.4205 96.362 54.4205C91.159 54.4205 86.5185 53.2955 82.5811 51.1159C78.6437 48.8659 75.55 45.7723 73.3704 41.8349C71.2611 37.8272 70.1361 33.1867 70.1361 28.1243C70.1361 23.0619 71.1908 18.4214 73.3704 14.484C75.4797 10.5466 78.5734 7.38262 82.5108 5.20299ZM26.1908 54.7139H0V1.79221H25.3808C30.781 1.79221 35.1011 3.00725 38.2062 5.43733C41.3788 7.9349 42.9988 11.445 42.9988 15.9002C42.9988 19.0728 42.1213 21.7728 40.4338 23.9329C39.2862 25.418 37.8012 26.633 36.0461 27.443C38.1387 28.3205 39.8937 29.6706 41.3113 31.4931C43.2014 33.9232 44.1464 36.7583 44.1464 39.8634C44.1464 44.4535 42.5263 48.1662 39.3537 50.7312C36.1811 53.2963 31.7935 54.6464 26.1908 54.6464V54.7139ZM1.68755 53.0263H26.1908C31.3885 53.0263 35.4386 51.8113 38.2737 49.5162C41.1088 47.2211 42.4588 44.0485 42.4588 39.9309C42.4588 37.1633 41.6488 34.7332 39.9613 32.5732C38.3412 30.4131 36.0461 29.0631 33.2785 28.388L29.9709 27.6455L33.211 26.768C35.7086 26.093 37.5987 24.8104 39.0837 22.9204C40.5013 21.0978 41.2438 18.7352 41.2438 15.9002C41.2438 11.9175 39.8938 8.94744 37.1262 6.71987C34.2911 4.5598 30.376 3.41226 25.3133 3.41226H1.68755V52.9588V53.0263ZM64.6683 54.7139H48.7378V1.79221H64.6683V54.7139ZM50.4254 53.0263H62.9808V3.47976H50.4254V53.0263Z" fill="url(#paint0_linear_6726_2719)"></path><path d="M207.309 20.7794L201.712 30.1567V35.3988H197.576V30.094L192 20.7794H196.365L199.832 26.5854L203.299 20.7794H207.309Z" fill="white"></path><path d="M189.323 35.3988L188.174 32.5585H181.993L180.844 35.3988H176.625L183.079 20.7794H187.151L193.625 35.3988H189.323ZM183.204 29.5093H186.963L185.084 24.831L183.204 29.5093Z" fill="white"></path><path d="M161.329 35.3988V20.7794H168.242C173.087 20.7794 176.408 23.5988 176.408 28.0891C176.408 32.5793 173.087 35.3988 168.242 35.3988H161.329ZM165.464 32.099H168.075C170.56 32.099 172.231 30.6162 172.231 28.0891C172.231 25.562 170.56 24.0792 168.075 24.0792H165.464V32.099Z" fill="white"></path><path d="M154.252 35.3988V20.7794H158.387V35.3988H154.252Z" fill="white"></path><path d="M147.835 35.3988L145.183 31.5142H142.927V35.3988H138.792V20.7794H145.475C149.464 20.7794 151.971 22.847 151.971 26.1886C151.971 28.3397 150.926 29.927 149.109 30.8041L152.263 35.3988H147.835ZM147.794 26.1886C147.794 24.831 146.937 24.0374 145.225 24.0374H142.927V28.3188H145.225C146.937 28.3188 147.794 27.5252 147.794 26.1886Z" fill="white"></path><path d="M136.858 23.9748H129.527V27.191H135.981V30.3864H129.527V35.3988H125.392V20.7794H136.858V23.9748Z" fill="white"></path><path d="M193.095 14.7483L189.079 9.64752L187.592 11.234V14.7483H183.656V0.691101H187.592V6.53486L193.035 0.691101H197.412L191.669 6.91642L197.714 14.7483H193.095Z" fill="white"></path><path d="M175.839 15.0294C171.381 15.0294 168.108 11.9971 168.108 7.7197C168.108 3.4423 171.381 0.409973 175.839 0.409973C178.43 0.409973 180.518 1.35381 181.884 3.06075L179.353 5.35006C178.47 4.28573 177.385 3.70337 176.04 3.70337C173.731 3.70337 172.124 5.3099 172.124 7.7197C172.124 10.1295 173.731 11.736 176.04 11.736C177.385 11.736 178.47 11.1537 179.353 10.0893L181.884 12.3786C180.518 14.0856 178.43 15.0294 175.839 15.0294Z" fill="white"></path><path d="M163.763 14.7483L162.658 12.0172H156.714L155.61 14.7483H151.553L157.758 0.691101H161.674L167.9 14.7483H163.763ZM157.879 9.08523H161.494L159.686 4.58694L157.879 9.08523Z" fill="white"></path><path d="M140.826 14.7483V0.691101H144.802V11.5954H151.509V14.7483H140.826Z" fill="white"></path><path d="M136.196 7.41846C137.783 7.98074 138.767 9.18564 138.767 10.8926C138.767 13.3225 136.758 14.7483 132.983 14.7483H125.392V0.691101H132.581C136.276 0.691101 138.084 2.19723 138.084 4.36604C138.084 5.71151 137.401 6.79592 136.196 7.41846ZM132.059 3.56278H129.328V6.2738H132.059C133.385 6.2738 134.067 5.81192 134.067 4.90825C134.067 4.02466 133.385 3.56278 132.059 3.56278ZM132.662 11.8766C134.027 11.8766 134.75 11.4147 134.75 10.4508C134.75 9.48687 134.027 9.02499 132.662 9.02499H129.328V11.8766H132.662Z" fill="white"></path><path d="M217.143 55.7682L215.994 52.9278H209.812L208.663 55.7682H204.445L210.898 41.1487H214.971L221.445 55.7682H217.143ZM211.023 49.8786H214.783L212.903 45.2004L211.023 49.8786Z" fill="url(#paint1_linear_6726_2719)"></path><path d="M196.788 55.7682V44.4277H192.298V41.1487H205.393V44.4277H200.923V55.7682H196.788Z" fill="url(#paint2_linear_6726_2719)"></path><path d="M186.599 55.7682V41.1487H190.734V55.7682H186.599Z" fill="url(#paint3_linear_6726_2719)"></path><path d="M179.63 41.1487H183.682V55.7682H180.277L173.824 47.9781V55.7682H169.772V41.1487H173.176L179.63 48.9388V41.1487Z" fill="url(#paint4_linear_6726_2719)"></path><path d="M162.695 55.7682V41.1487H166.831V55.7682H162.695Z" fill="url(#paint5_linear_6726_2719)"></path><path d="M160.762 44.3441H153.431V47.5604H159.885V50.7558H153.431V55.7682H149.296V41.1487H160.762V44.3441Z" fill="url(#paint6_linear_6726_2719)"></path><path d="M142.327 41.1487H146.379V55.7682H142.975L136.521 47.9781V55.7682H132.469V41.1487H135.874L142.327 48.9388V41.1487Z" fill="url(#paint7_linear_6726_2719)"></path><path d="M125.392 55.7682V41.1487H129.527V55.7682H125.392Z" fill="url(#paint8_linear_6726_2719)"></path><defs><linearGradient id="paint0_linear_6726_2719" x1="-5.72777e-07" y1="21.185" x2="122.518" y2="59.2915" gradientUnits="userSpaceOnUse"><stop stop-color="#4DAFFE"></stop><stop offset="0.822058" stop-color="#1C186F"></stop><stop offset="0.968"></stop></linearGradient><linearGradient id="paint1_linear_6726_2719" x1="123.93" y1="41.1594" x2="221.308" y2="55.788" gradientUnits="userSpaceOnUse"><stop stop-color="#4DAFFE"></stop><stop offset="1" stop-color="#635DC9"></stop></linearGradient><linearGradient id="paint2_linear_6726_2719" x1="123.931" y1="41.1594" x2="221.308" y2="55.788" gradientUnits="userSpaceOnUse"><stop stop-color="#4DAFFE"></stop><stop offset="1" stop-color="#635DC9"></stop></linearGradient><linearGradient id="paint3_linear_6726_2719" x1="123.93" y1="41.1594" x2="221.308" y2="55.788" gradientUnits="userSpaceOnUse"><stop stop-color="#4DAFFE"></stop><stop offset="1" stop-color="#635DC9"></stop></linearGradient><linearGradient id="paint4_linear_6726_2719" x1="123.93" y1="41.1594" x2="221.308" y2="55.788" gradientUnits="userSpaceOnUse"><stop stop-color="#4DAFFE"></stop><stop offset="1" stop-color="#635DC9"></stop></linearGradient><linearGradient id="paint5_linear_6726_2719" x1="123.93" y1="41.1594" x2="221.308" y2="55.788" gradientUnits="userSpaceOnUse"><stop stop-color="#4DAFFE"></stop><stop offset="1" stop-color="#635DC9"></stop></linearGradient><linearGradient id="paint6_linear_6726_2719" x1="123.931" y1="41.1594" x2="221.308" y2="55.788" gradientUnits="userSpaceOnUse"><stop stop-color="#4DAFFE"></stop><stop offset="1" stop-color="#635DC9"></stop></linearGradient><linearGradient id="paint7_linear_6726_2719" x1="123.93" y1="41.1594" x2="221.308" y2="55.788" gradientUnits="userSpaceOnUse"><stop stop-color="#4DAFFE"></stop><stop offset="1" stop-color="#635DC9"></stop></linearGradient><linearGradient id="paint8_linear_6726_2719" x1="123.93" y1="41.1594" x2="221.308" y2="55.788" gradientUnits="userSpaceOnUse"><stop stop-color="#4DAFFE"></stop><stop offset="1" stop-color="#635DC9"></stop></linearGradient></defs></svg>