<svg xmlns="http://www.w3.org/2000/svg" width="87" height="20" viewBox="0 0 87 20" fill="none"><path d="M76.1877 19.7781L79.2086 10.354H83.0558L86.18 19.7781H83.7013L81.2742 12.0323L81.9584 12.2905H80.2543L80.9515 12.0323L78.589 19.7781H76.1877ZM78.6535 17.5964L79.3765 15.6341H82.9525L83.6755 17.5964H78.6535Z" fill="white"></path><path d="M71.7272 19.7781V12.1872H74.1285V19.7781H71.7272ZM69.1453 12.4454V10.354H76.7104V12.4454H69.1453Z" fill="white"></path><path d="M62.2017 19.7781V10.354H64.5254V19.7781H62.2017ZM64.2672 19.7781V17.8159H68.2435V19.7781H64.2672ZM64.2672 15.9698V14.0075H67.9724V15.9698H64.2672ZM64.2672 12.3163V10.354H68.166V12.3163H64.2672Z" fill="white"></path><path d="M52.6455 19.7781V10.2765H55.0467V19.7781H52.6455ZM58.3258 19.7781L55.6793 15.7761H58.2871L61.0885 19.7781H58.3258ZM54.44 16.8863V15.0402H56.6992C56.9832 15.0402 57.2285 14.9843 57.4351 14.8724C57.6416 14.7605 57.8008 14.6013 57.9127 14.3947C58.0332 14.1882 58.0935 13.9472 58.0935 13.6718C58.0935 13.3877 58.0332 13.1425 57.9127 12.9359C57.8008 12.7294 57.6416 12.5701 57.4351 12.4582C57.2285 12.3464 56.9832 12.2904 56.6992 12.2904H54.44V10.2765H56.5572C57.3748 10.2765 58.0806 10.4013 58.6744 10.6509C59.2683 10.8919 59.7244 11.2533 60.0428 11.7353C60.3613 12.2087 60.5205 12.7982 60.5205 13.5039V13.7105C60.5205 14.4162 60.357 15.0058 60.0299 15.4791C59.7115 15.9439 59.2553 16.2968 58.6615 16.5377C58.0762 16.7701 57.3748 16.8863 56.5572 16.8863H54.44Z" fill="white"></path><path d="M46.0639 17.2736V15.208H47.6131C47.9057 15.208 48.1596 15.1521 48.3748 15.0402C48.59 14.9197 48.7578 14.7519 48.8783 14.5367C48.9988 14.3216 49.059 14.0677 49.059 13.775C49.059 13.4738 48.9988 13.2156 48.8783 13.0005C48.7578 12.7853 48.59 12.6218 48.3748 12.5099C48.1596 12.398 47.9057 12.3421 47.6131 12.3421H46.0639V10.2765H47.5486C48.3576 10.2765 49.0547 10.4142 49.64 10.6896C50.2338 10.9564 50.69 11.3437 51.0084 11.8515C51.3268 12.3593 51.4861 12.966 51.4861 13.6718V13.8783C51.4861 14.5755 51.3268 15.1779 51.0084 15.6857C50.69 16.1935 50.2338 16.5851 49.64 16.8605C49.0547 17.1359 48.3576 17.2736 47.5486 17.2736H46.0639ZM43.9209 19.7781V10.2765H46.3221V19.7781H43.9209Z" fill="white"></path><path d="M30.2344 19.7781L33.2553 10.354H37.1024L40.2266 19.7781H37.7479L35.3209 12.0323L36.0051 12.2905H34.301L34.9981 12.0323L32.6356 19.7781H30.2344ZM32.7002 17.5964L33.4231 15.6341H36.9991L37.7221 17.5964H32.7002Z" fill="white"></path><path d="M20.8289 19.7781L23.953 14.7691L23.9789 14.9757L21.0871 10.354H23.7207L25.3344 13.078H25.67L27.2321 10.354H29.7883L26.9094 15.0015L26.8707 14.795L30.0981 19.7781H27.4645L25.5409 16.6669H25.2053L23.385 19.7781H20.8289Z" fill="white"></path><path d="M17.3721 19.7781V10.354H19.7733V19.7781H17.3721Z" fill="white"></path><path d="M6.29419 19.7781L9.31509 10.354H13.1622L16.2864 19.7781H13.8077L11.3807 12.0323L12.0649 12.2905H10.3608L11.0579 12.0323L8.69542 19.7781H6.29419ZM8.75997 17.5964L9.48292 15.6341H13.0589L13.7819 17.5964H8.75997Z" fill="white"></path><path d="M0.539307 19.7781V10.354H2.94054V19.7781H0.539307ZM2.68234 16.1247V14.1624H6.18091V16.1247H2.68234ZM2.68234 12.3163V10.354H6.32291V12.3163H2.68234Z" fill="white"></path><path d="M70.5676 6.88677V0.604004H71.2217V6.88677H70.5676ZM71.0668 6.88677V6.29292H74.2082V6.88677H71.0668ZM71.0668 3.98637V3.40112H73.9156V3.98637H71.0668ZM71.0668 1.19785V0.604004H74.1135V1.19785H71.0668Z" fill="white"></path><path d="M64.2073 6.92113V6.31868H65.92C66.3446 6.31868 66.7147 6.24982 67.0303 6.11212C67.3516 5.97441 67.6212 5.78794 67.8393 5.5527C68.0573 5.31171 68.2208 5.0363 68.3299 4.72647C68.4389 4.41663 68.4934 4.08672 68.4934 3.73672C68.4934 3.37525 68.436 3.03959 68.3212 2.72976C68.2122 2.41992 68.0487 2.14738 67.8307 1.91214C67.6126 1.67689 67.343 1.49615 67.0217 1.36993C66.7061 1.2437 66.3389 1.18058 65.92 1.18058H64.2073V0.578125H65.8512C66.4135 0.578125 66.9012 0.66419 67.3143 0.836321C67.7274 1.00845 68.0717 1.2437 68.3471 1.54206C68.6225 1.83468 68.8262 2.16459 68.9581 2.53181C69.0901 2.89902 69.1561 3.27197 69.1561 3.65065V3.81418C69.1561 4.18713 69.0901 4.55721 68.9581 4.92442C68.8262 5.29163 68.6253 5.62729 68.3557 5.93138C68.086 6.22974 67.7417 6.47072 67.3229 6.65433C66.9098 6.8322 66.4192 6.92113 65.8512 6.92113H64.2073ZM63.7253 6.92113V0.578125H64.3794V6.92113H63.7253Z" fill="white"></path><path d="M56.583 6.88677L58.8982 0.604004H60.0687L62.4613 6.88677H61.79L59.5609 1.01712L59.9137 1.19785H59.0101L59.3801 1.01712L57.2371 6.88677H56.583ZM57.8223 4.89005L58.0375 4.2962H60.9551L61.1789 4.89005H57.8223Z" fill="white"></path><path d="M51.1048 6.92113V6.31868H52.8175C53.2421 6.31868 53.6121 6.24982 53.9277 6.11212C54.249 5.97441 54.5187 5.78794 54.7367 5.5527C54.9548 5.31171 55.1183 5.0363 55.2273 4.72647C55.3363 4.41663 55.3908 4.08672 55.3908 3.73672C55.3908 3.37525 55.3335 3.03959 55.2187 2.72976C55.1097 2.41992 54.9462 2.14738 54.7281 1.91214C54.5101 1.67689 54.2404 1.49615 53.9191 1.36993C53.6035 1.2437 53.2363 1.18058 52.8175 1.18058H51.1048V0.578125H52.7486C53.3109 0.578125 53.7986 0.66419 54.2117 0.836321C54.6249 1.00845 54.9691 1.2437 55.2445 1.54206C55.5199 1.83468 55.7236 2.16459 55.8556 2.53181C55.9876 2.89902 56.0535 3.27197 56.0535 3.65065V3.81418C56.0535 4.18713 55.9876 4.55721 55.8556 4.92442C55.7236 5.29163 55.5228 5.62729 55.2531 5.93138C54.9835 6.22974 54.6392 6.47072 54.2203 6.65433C53.8072 6.8322 53.3167 6.92113 52.7486 6.92113H51.1048ZM50.6228 6.92113V0.578125H51.2769V6.92113H50.6228Z" fill="white"></path><path d="M47.9919 6.88677V0.604004H48.646V6.88677H47.9919Z" fill="white"></path><path d="M43.335 6.88677V0.604004H43.9891V6.88677H43.335ZM43.8169 6.88677V6.29292H46.769V6.88677H43.8169Z" fill="white"></path><path d="M36.1926 6.88677L38.5078 0.604004H39.6783L42.0709 6.88677H41.3996L39.1705 1.01712L39.5234 1.19785H38.6197L38.9898 1.01712L36.8467 6.88677H36.1926ZM37.432 4.89005L37.6471 4.2962H40.5648L40.7885 4.89005H37.432Z" fill="white"></path><path d="M33.5065 6.88677V1.03433H34.1606V6.88677H33.5065ZM31.5442 1.19785V0.604004H36.1229V1.19785H31.5442Z" fill="white"></path><path d="M25.0549 6.88677V0.604004H26.148L29.5906 6.29292H29.866L29.6939 6.43062V0.604004H30.3221V6.88677H29.2205L25.7779 1.19785H25.5025L25.6746 1.06015V6.88677H25.0549Z" fill="white"></path><path d="M19.8696 6.88677V0.604004H20.5237V6.88677H19.8696ZM20.3688 6.88677V6.29292H23.5102V6.88677H20.3688ZM20.3688 3.98637V3.40112H23.2176V3.98637H20.3688ZM20.3688 1.19785V0.604004H23.4155V1.19785H20.3688Z" fill="white"></path><path d="M12.0774 6.88677V0.604004H12.9294L14.909 4.9503H15.0639L17.0348 0.604004H17.904V6.88677H17.2499V1.33556L17.3016 1.34416L15.3909 5.56136H14.5303L12.611 1.34416L12.6799 1.33556V6.88677H12.0774Z" fill="white"></path></svg>