<svg xmlns="http://www.w3.org/2000/svg" width="108" height="17" viewBox="0 0 108 17" fill="none"><g clip-path="url(#clip0_6738_1888)"><mask id="mask0_6738_1888" style="mask-type:luminance" maskUnits="userSpaceOnUse" x="0" y="0" width="108" height="16"><path d="M107.344 0.178223H0.110229V15.9446H107.344V0.178223Z" fill="white"></path></mask><g mask="url(#mask0_6738_1888)"><path d="M2.36436 6.37684C2.36436 6.68724 2.46682 6.75764 2.61091 6.82804C2.7422 6.88564 2.87989 6.92084 3.02398 6.93044H6.28367C6.57186 6.91444 7.49085 6.92404 8.21771 7.57684C8.59876 7.91924 9.05345 8.55924 9.05345 9.66004C9.05345 11.7848 7.34355 12.556 6.19722 12.556L0.475142 12.5656C0.382282 12.5656 0.289423 12.5272 0.225381 12.4632C0.158138 12.396 0.119714 12.3064 0.119714 12.2136V10.6712C0.119714 10.5784 0.154936 10.4856 0.218977 10.4216C0.283018 10.3576 0.375878 10.316 0.468738 10.316L6.18121 10.3064C6.7992 10.2808 6.7992 9.86164 6.7992 9.66004C6.7992 9.42004 6.75117 9.28884 6.71275 9.25044C6.62629 9.19604 6.52703 9.17044 6.42776 9.17684L6.35412 9.18644L6.3221 9.18004H3.02078C2.54687 9.17044 2.07937 9.06165 1.6503 8.86325C0.673669 8.40564 0.110107 7.50004 0.110107 6.38004C0.110107 5.26004 0.632043 4.37684 1.57665 3.89684C1.99612 3.68884 2.45401 3.57044 2.92151 3.55444H8.75566C8.95099 3.55444 9.11109 3.71444 9.11109 3.90964V5.45204C9.11109 5.64724 8.95099 5.80724 8.75566 5.80724H2.95994C2.75821 5.81684 2.36436 5.84564 2.36436 6.38004V6.37684Z" fill="white"></path><path d="M19.4154 3.91245V5.45485C19.4154 5.65005 19.2553 5.81005 19.06 5.81005H16.4119C16.2165 5.81005 16.0564 5.97005 16.0564 6.16525V12.21C16.0564 12.4052 15.8963 12.5652 15.701 12.5652H14.1576C13.9623 12.5652 13.8022 12.4052 13.8022 12.21V6.16525C13.8022 5.97005 13.6421 5.81005 13.4468 5.81005H10.7987C10.6033 5.81005 10.4432 5.65005 10.4432 5.45485V3.91245C10.4432 3.71725 10.6033 3.55725 10.7987 3.55725H19.0568C19.2521 3.55725 19.4122 3.71725 19.4122 3.91245H19.4154Z" fill="white"></path><path d="M28.474 8.05965C28.474 10.546 26.4567 12.562 23.9687 12.562C21.4807 12.562 19.4634 10.546 19.4634 8.05965C19.4634 5.57325 21.4807 3.55725 23.9687 3.55725C26.4567 3.55725 28.4708 5.57325 28.474 8.05965ZM23.9687 10.3092C25.2111 10.3092 26.2197 9.30125 26.2197 8.05645C26.2197 6.81485 25.2111 5.80685 23.9687 5.80685C22.7263 5.80685 21.7176 6.81485 21.7176 8.05645C21.7176 9.29805 22.7263 10.3061 23.9687 10.3061V10.3092Z" fill="white"></path><path d="M35.9796 9.45485C35.9348 9.40685 35.9188 9.33645 35.9444 9.27245C35.9668 9.20845 36.0245 9.16685 36.0917 9.16045C36.5048 9.12525 36.9114 9.01965 37.2925 8.85325C38.2467 8.37645 38.7686 7.48685 38.7686 6.35085C38.7686 5.31085 38.3427 4.67725 37.9841 4.32845C37.2252 3.58605 36.2166 3.55725 36.0116 3.55725H30.1583C29.9598 3.55725 29.8029 3.71725 29.8029 3.91245V5.59245C29.8029 5.71085 29.8989 5.80685 30.0174 5.80685H36.0469C36.1782 5.81645 36.303 5.86445 36.4119 5.94125C36.5048 6.03085 36.5176 6.23565 36.5176 6.35085C36.5176 6.90765 36.1173 6.92685 35.922 6.93325H30.043C29.9117 6.93325 29.8029 7.03885 29.8029 7.17325V12.2069C29.8029 12.4021 29.9598 12.562 30.1583 12.562H31.6985C31.897 12.562 32.0539 12.4021 32.0539 12.2069V9.53805C32.0539 9.44525 32.0923 9.35565 32.1596 9.28845C32.2236 9.22125 32.3165 9.18605 32.4093 9.18605H32.5278C32.6271 9.18605 32.7231 9.22765 32.7904 9.30125L35.6594 12.4468C35.7267 12.5204 35.8227 12.562 35.922 12.562H38.41C38.4804 12.562 38.5445 12.5204 38.5733 12.4564C38.6021 12.3924 38.5893 12.3156 38.5413 12.2645L35.9796 9.45485Z" fill="white"></path><path d="M40.456 3.56067H41.9994C42.1947 3.56067 42.3548 3.72067 42.3548 3.91587V12.2103C42.3548 12.4055 42.1947 12.5655 41.9994 12.5655H40.456C40.2607 12.5655 40.1006 12.4055 40.1006 12.2103V3.91267C40.1006 3.81987 40.139 3.72707 40.2031 3.66307C40.2671 3.59907 40.36 3.56067 40.4528 3.56067H40.456Z" fill="white"></path><path d="M45.9411 6.16525V6.58125C45.9411 6.77645 46.1012 6.93645 46.2965 6.93645H48.5028C48.6981 6.93645 48.8582 7.09645 48.8582 7.29165V8.83405C48.8582 9.02925 48.6981 9.18925 48.5028 9.18925H46.2965C46.2037 9.18925 46.1108 9.22765 46.0468 9.29165C45.9795 9.35885 45.9443 9.44845 45.9443 9.54125V9.95725C45.9443 10.0501 45.9827 10.1428 46.0468 10.2069C46.1108 10.2708 46.2037 10.3092 46.2965 10.3092H52.3452C52.5405 10.3092 52.7007 10.4692 52.7007 10.6644V12.2069C52.7007 12.4021 52.5405 12.562 52.3452 12.562H44.0455C43.8502 12.562 43.6901 12.4021 43.6901 12.2069V3.91245C43.6901 3.71725 43.8502 3.55725 44.0455 3.55725H52.3452C52.5405 3.55725 52.7007 3.71725 52.7007 3.91245V5.45485C52.7007 5.65005 52.5405 5.81005 52.3452 5.81005H46.2965C46.1012 5.81005 45.9411 5.97005 45.9411 6.16525Z" fill="white"></path><path d="M56.2811 6.37663C56.2811 6.68703 56.3836 6.75743 56.5277 6.82783C56.659 6.88543 56.7967 6.92063 56.9408 6.93023H60.2005C60.4886 6.91423 61.4076 6.92383 62.1345 7.57663C62.5155 7.91903 62.9702 8.55903 62.9702 9.65983C62.9702 11.7846 61.2603 12.5558 60.114 12.5558L54.3919 12.5654C54.2991 12.5654 54.2062 12.527 54.1422 12.463C54.0749 12.3958 54.0397 12.3062 54.0365 12.2134V10.671C54.0365 10.5782 54.0717 10.4854 54.1358 10.4214C54.1998 10.3574 54.2927 10.3158 54.3855 10.3158L60.098 10.3062C60.716 10.2806 60.716 9.86143 60.716 9.65983C60.716 9.41983 60.668 9.28863 60.6295 9.25023C60.5431 9.19583 60.4438 9.17023 60.3446 9.17663L60.2709 9.18623L60.2389 9.17983H56.944C56.4701 9.17023 56.0026 9.06143 55.5735 8.86303C54.5969 8.40223 54.0365 7.49663 54.0365 6.37663C54.0365 5.25663 54.5584 4.37343 55.503 3.89343C55.9225 3.68543 56.3804 3.56703 56.8479 3.55103H62.6788C62.8742 3.55103 63.0343 3.71103 63.0343 3.90623V5.44863C63.0343 5.64383 62.8742 5.80383 62.6788 5.80383H56.8831C56.6814 5.81343 56.2875 5.84223 56.2875 6.37663H56.2811Z" fill="white"></path><path d="M75.7082 0.459839H71.4815C70.9979 0.459839 70.6073 0.853439 70.6073 1.33344V3.83264C70.6073 4.31584 71.0012 4.70624 71.4815 4.70944H72.0546C72.2051 4.70944 72.33 4.83104 72.33 4.98464V14.7862C72.33 15.2694 72.7239 15.6598 73.2074 15.6598H75.7082C76.1917 15.6598 76.5823 15.2662 76.5823 14.7862V1.33664C76.5823 0.853439 76.1885 0.463039 75.7082 0.463039V0.459839Z" fill="#B1B1B1"></path><path d="M85.7589 0.459595C81.5642 0.459595 78.1541 3.8708 78.1541 8.0596C78.1541 12.2484 81.5675 15.6596 85.7589 15.6596C89.9504 15.6596 93.3638 12.2484 93.3638 8.0596C93.3606 3.874 89.9472 0.462795 85.7589 0.459595ZM89.1115 8.0596C89.1115 9.88039 87.6449 11.3684 85.8326 11.41H85.7589C83.9114 11.41 82.4064 9.906 82.4064 8.0596C82.4064 6.2132 83.9114 4.7092 85.7589 4.7092C87.6065 4.7092 89.1115 6.2132 89.1115 8.0596Z" fill="#B1B1B1"></path><path d="M102.262 7.93822C102.186 8.05022 102.186 8.19742 102.262 8.30942L104.574 11.6566L105.039 12.3318C105.215 12.5846 105.051 12.9398 104.754 12.9462L100.95 13.0518C100.828 13.0518 100.716 12.9974 100.639 12.8918L99.9537 11.903C99.8929 11.8518 99.816 11.823 99.736 11.823C99.6271 11.823 99.5278 11.8774 99.467 11.9638L96.8093 15.8006C96.7484 15.8902 96.646 15.9414 96.5435 15.9414H92.5441C92.4225 15.9414 92.3136 15.8742 92.256 15.7686C92.1983 15.6598 92.2079 15.5318 92.2784 15.4294L97.216 8.30622C97.28 8.21342 97.2896 8.09822 97.2512 7.99902L94.427 3.92862C94.2508 3.67582 94.4141 3.32062 94.7087 3.31422L98.5448 3.20862C98.6633 3.20862 98.7785 3.26302 98.8522 3.36862L99.5022 4.31262C99.5631 4.37982 99.6495 4.41822 99.7424 4.41822C99.848 4.41822 99.9505 4.36702 100.011 4.27742L102.752 0.319023C102.813 0.229423 102.912 0.178223 103.021 0.178223H107.017C107.139 0.178223 107.251 0.245423 107.309 0.351023C107.363 0.459823 107.357 0.587823 107.286 0.687023L102.262 7.93502V7.93822Z" fill="#B1B1B1"></path><path d="M69.0348 7.3944L66.3578 5.8488C65.8455 5.5512 65.2019 5.9224 65.2019 6.5144V9.6056C65.2019 10.1976 65.8423 10.5688 66.3578 10.2712L69.0348 8.7256C69.5471 8.428 69.5471 7.6888 69.0348 7.3944Z" fill="#B1B1B1"></path></g></g><defs><clipPath id="clip0_6738_1888"><rect width="107.269" height="16" fill="white" transform="translate(0.109375 0.178223)"></rect></clipPath></defs></svg>