<svg xmlns="http://www.w3.org/2000/svg" width="101" height="17" viewBox="0 0 101 17" fill="none"><g clip-path="url(#clip0_6738_1948)"><path d="M68.064 10.5337C68.064 8.15219 69.0851 7.16746 72.0043 7.16746C73.6518 7.16746 74.7446 7.52594 75.3709 8.20661V7.02494C75.3709 5.34139 74.8336 4.80411 72.8276 4.80411C70.8216 4.80411 70.5529 5.17985 70.5529 6.34426L68.5114 6.29071C68.4761 3.99818 69.5862 2.97803 72.8639 2.97803C76.5355 2.97803 77.5203 4.10615 77.5203 6.54206C77.5203 7.95698 77.5022 8.56596 77.5022 10.2132C77.5022 11.2878 77.5022 12.2008 77.5203 13.6157H75.586L75.5507 12.3261C74.9597 13.2573 73.8132 13.8299 71.987 13.8299C69.0315 13.8299 68.0648 12.8807 68.0648 10.5354L68.064 10.5337ZM75.4244 10.4983V10.0508C75.4244 9.19134 74.869 8.72575 72.8457 8.72575C70.679 8.72575 70.2488 9.20949 70.2488 10.481C70.2488 11.7525 70.876 12.1101 72.8094 12.1101C74.869 12.1101 75.4244 11.6445 75.4244 10.4983Z" fill="white"></path><path d="M79.5801 8.67104V8.13375C79.5801 4.12226 80.8871 2.97687 83.9679 2.97687C85.6154 2.97687 86.7082 3.56771 87.3527 4.69583C87.3345 2.86975 87.3172 0.971119 87.3172 0.21875H89.5021C89.4839 0.845869 89.4839 1.63366 89.4839 2.63653V11.2141C89.4839 12.1988 89.4839 12.9149 89.5021 13.6137H87.5142L87.4779 11.823C86.8507 13.1481 85.7052 13.8288 83.8779 13.8288C80.8871 13.8288 79.5801 12.6825 79.5801 8.6719V8.67104ZM87.3708 8.49223V8.31342C87.3708 5.55617 86.6545 4.92906 84.6486 4.92906C82.4275 4.92906 81.7295 5.59159 81.7295 8.33156V8.47496C81.7295 11.2149 82.4283 11.8775 84.5596 11.8775C86.6908 11.8775 87.3716 11.2331 87.3716 8.49309L87.3708 8.49223Z" fill="white"></path><path d="M91.4883 10.2288L93.5124 10.1752V10.4257C93.5124 11.7508 94.0135 12.1093 96.2527 12.1093C98.0255 12.1093 98.5092 11.7335 98.5092 10.7842C98.5092 10.0318 98.1689 9.62066 95.5184 9.19049C92.366 8.68863 91.6497 8.02695 91.6497 6.0929C91.6497 3.8548 92.7245 2.97717 95.8406 2.97717C99.5304 2.97717 100.3 3.89021 100.3 6.32613L98.2405 6.37968V6.11104C98.2405 5.09003 97.7931 4.69613 95.7871 4.69613C94.2467 4.69613 93.7093 5.05462 93.7093 5.94951C93.7093 6.77358 94.0678 7.11305 96.3244 7.43611C100.014 7.9734 100.677 8.83288 100.677 10.6054C100.677 12.9869 99.7273 13.8291 96.2172 13.8291C92.4203 13.8291 91.4891 13.113 91.4891 10.2296L91.4883 10.2288Z" fill="white"></path><path d="M16.4437 5.25046C16.4437 4.55251 16.4437 3.96081 16.4255 3.19116H18.5749C18.5749 3.88998 18.5568 4.39098 18.5568 5.21504V8.9579C18.5568 11.3213 19.0942 11.8767 20.9386 11.8767C22.7831 11.8767 23.482 11.3213 23.482 8.43875V5.50183C23.482 4.55251 23.482 3.96167 23.4638 3.19202H25.6305C25.6124 3.97981 25.6124 4.60694 25.6124 5.55625V11.3757C25.6124 12.2352 25.6124 12.8623 25.6305 13.6138H23.6245L23.5891 11.8767C22.9446 13.3089 21.7447 13.8289 19.9537 13.8289C17.4467 13.8289 16.4255 12.8441 16.4255 10.194C16.4255 9.6567 16.4437 8.56486 16.4437 7.18537V5.25132V5.25046Z" fill="white"></path><path d="M28.3712 5.53737C28.3712 4.6416 28.3712 3.9618 28.353 3.19128H30.3591L30.3953 4.98194C31.0045 3.65686 32.1681 2.9762 33.9953 2.9762C36.9861 2.9762 38.2933 4.12245 38.2933 8.13308V8.67037C38.2933 12.6819 36.968 13.8273 33.8873 13.8273C32.2399 13.8273 31.1469 13.2364 30.5206 12.0902C30.5206 14.0424 30.5206 15.3847 30.5387 16.1189H28.354C28.3721 15.5816 28.3721 14.6868 28.3721 13.6295V5.53563L28.3712 5.53737ZM33.2247 11.8768C35.4458 11.8768 36.1257 11.2142 36.1257 8.47429V8.33089C36.1257 5.57364 35.4449 4.92839 33.2955 4.92839C31.1461 4.92839 30.5016 5.57278 30.5016 8.31274V8.49156C30.5016 11.2315 31.1997 11.8759 33.2239 11.8759L33.2247 11.8768Z" fill="white"></path><path d="M39.7781 8.67135V8.13406C39.7781 4.15884 41.1749 2.97717 44.6678 2.97717C48.1605 2.97717 49.4858 4.15884 49.4858 8.13406V9.0471H41.9455C42.0354 11.3569 42.7697 11.9659 44.793 11.9659C46.9243 11.9659 47.3718 11.3932 47.3718 10.0854L49.4849 10.1571C49.4849 12.7891 48.4284 13.8283 44.7749 13.8283C41.1214 13.8283 39.7781 12.6465 39.7781 8.67135ZM41.9447 7.45338H47.2457C47.174 5.25069 46.583 4.69527 44.6841 4.69527C42.7853 4.69527 42.0691 5.25069 41.9438 7.45338H41.9447Z" fill="white"></path><path d="M51.5982 5.42939C51.5982 4.55177 51.5981 3.92551 51.5801 3.19128H53.5861L53.6224 4.94652C54.1951 3.62145 55.2344 2.9762 56.7566 2.9762C58.9232 2.9762 59.6222 3.74584 59.6222 6.16361C59.6222 6.6292 59.6222 7.18463 59.604 7.65021L57.5799 7.68563V6.64735C57.5799 5.32227 57.2577 4.92839 55.8426 4.92839C54.4275 4.92839 53.7295 5.46566 53.7295 8.36631V11.3032C53.7295 12.2525 53.7295 12.8434 53.7475 13.613H51.5809C51.5991 12.8253 51.5991 12.1982 51.5991 11.2497V5.42939H51.5982Z" fill="white"></path><path d="M3.95717 13.5706C3.74897 13.5049 3.57877 13.4116 3.46388 13.2993C3.14683 12.9892 3.10104 12.5599 3.05957 11.5L3.04747 11.2037L0.876465 11.2996L0.88856 11.5864C0.915341 12.2679 0.944714 12.9633 1.1676 13.6138H4.09885C4.05134 13.5999 4.00469 13.5861 3.95717 13.5714V13.5706Z" fill="white"></path><path d="M11.4955 5.21245L13.6683 5.22282C13.6734 4.67777 13.5481 3.92799 13.2034 3.19116H10.4312C11.4195 3.80705 11.4929 4.93689 11.4955 5.21245Z" fill="white"></path><path d="M7.41865 7.17933C5.8731 6.94351 3.94917 6.64895 3.38331 6.10217C2.61184 5.35757 2.96518 4.09643 3.31506 3.61701C3.42391 3.46844 3.6062 3.32246 3.8671 3.19116H1.09827C0.57992 4.4955 0.528085 6.36476 1.87406 7.66479C2.93753 8.69184 4.95477 9.00021 7.09122 9.32673C8.79313 9.58673 11.1248 9.94348 11.6268 10.6829C12.1805 11.5001 12.1607 12.2015 11.5585 13.1059C11.4306 13.2976 11.2 13.4678 10.889 13.6129H13.7649C14.6004 11.8672 14.0708 10.4151 13.4254 9.46321C12.3904 7.9386 9.97668 7.56976 7.41951 7.17933H7.41865Z" fill="white"></path><path d="M64.9214 7.64062H62.7546V9.80702H64.9214V7.64062Z" fill="#B1B1B1"></path></g><defs><clipPath id="clip0_6738_1948"><rect width="100.073" height="16" fill="white" transform="translate(0.721436 0.178223)"></rect></clipPath></defs></svg>