<svg xmlns="http://www.w3.org/2000/svg" width="87" height="30" viewBox="0 0 87 30" fill="none"><path d="M29.0775 1.7782H29.5754C29.5936 1.7782 29.6073 1.78725 29.6141 1.80309L30.7145 4.25569C30.7304 4.28963 30.7782 4.28963 30.7941 4.25569L31.899 1.80309C31.9058 1.78725 31.9218 1.7782 31.9377 1.7782H32.4356C32.4606 1.7782 32.4788 1.79856 32.4788 1.82119V4.96161C32.4788 4.98649 32.4583 5.00459 32.4356 5.00459H32.0059C31.9809 5.00459 31.9627 4.98423 31.9627 4.96161V2.77825H31.9399L30.9555 4.97971C30.9487 4.99554 30.9328 5.00459 30.9168 5.00459H30.5894C30.5713 5.00459 30.5576 4.99554 30.5485 4.97971L29.5686 2.77825H29.5459V4.96161C29.5459 4.98649 29.5254 5.00459 29.5027 5.00459H29.073C29.048 5.00459 29.0298 4.98423 29.0298 4.96161V1.82119C29.0298 1.7963 29.0502 1.7782 29.073 1.7782H29.0775Z" fill="white"></path><path d="M34.8504 1.77825H36.5534C36.5784 1.77825 36.5965 1.79861 36.5965 1.82123V2.21265C36.5965 2.23754 36.5761 2.25564 36.5534 2.25564H35.3665C35.3415 2.25564 35.3234 2.27601 35.3234 2.29863V3.10636C35.3234 3.13125 35.3438 3.14935 35.3665 3.14935H36.3578C36.3828 3.14935 36.401 3.16971 36.401 3.19234V3.57018C36.401 3.59507 36.3806 3.61317 36.3578 3.61317H35.3665C35.3415 3.61317 35.3234 3.63354 35.3234 3.65616V4.48199C35.3234 4.50688 35.3438 4.52498 35.3665 4.52498H36.5943C36.6193 4.52498 36.6375 4.54534 36.6375 4.56797V4.95939C36.6375 4.98428 36.617 5.00238 36.5943 5.00238H34.8504C34.8254 5.00238 34.8073 4.98202 34.8073 4.95939V1.82123C34.8073 1.79635 34.8277 1.77825 34.8504 1.77825ZM36.0145 0.778198H36.3305C36.3646 0.778198 36.3851 0.816662 36.3669 0.843812L35.969 1.46601C35.9599 1.47959 35.9463 1.48638 35.9327 1.48638H35.628C35.5939 1.48638 35.5734 1.45018 35.5916 1.42076L35.9759 0.798561C35.9827 0.784986 35.9986 0.778198 36.0122 0.778198H36.0145Z" fill="white"></path><path d="M39.5519 2.2556H38.8221C38.7971 2.2556 38.7789 2.23523 38.7789 2.21261V1.82119C38.7789 1.7963 38.7994 1.7782 38.8221 1.7782H40.8865C40.9115 1.7782 40.9297 1.79856 40.9297 1.82119V2.21261C40.9297 2.2375 40.9093 2.2556 40.8865 2.2556H40.1567C40.1317 2.2556 40.1135 2.27596 40.1135 2.29858V4.96161C40.1135 4.98649 40.0931 5.00459 40.0703 5.00459H39.6406C39.6156 5.00459 39.5974 4.98423 39.5974 4.96161V2.29858C39.5974 2.2737 39.577 2.2556 39.5542 2.2556H39.5519Z" fill="white"></path><path d="M42.8649 3.39124C42.8649 2.40024 43.6265 1.73279 44.5223 1.73279C45.4181 1.73279 46.1797 2.40024 46.1797 3.39124C46.1797 4.38223 45.4135 5.04969 44.5223 5.04969C43.6311 5.04969 42.8649 4.38223 42.8649 3.39124ZM44.5223 4.55871C45.1248 4.55871 45.65 4.09941 45.65 3.39124C45.65 2.68306 45.1248 2.22376 44.5223 2.22376C43.9198 2.22376 43.3946 2.68306 43.3946 3.39124C43.3946 4.09941 43.9198 4.55871 44.5223 4.55871Z" fill="white"></path><path d="M48.4642 1.82119C48.4642 1.7963 48.4847 1.7782 48.5074 1.7782H49.5419C50.465 1.7782 51.122 2.4366 51.122 3.3914C51.122 4.34619 50.465 5.00459 49.5419 5.00459H48.5074C48.4824 5.00459 48.4642 4.98423 48.4642 4.96161V1.82119ZM49.5237 4.51815C50.2126 4.51815 50.5877 4.06337 50.5877 3.3914C50.5877 2.71942 50.2126 2.26465 49.5237 2.26465H49.0235C48.9985 2.26465 48.9803 2.28501 48.9803 2.30763V4.47516C48.9803 4.50005 49.0008 4.51815 49.0235 4.51815H49.5237Z" fill="white"></path><path d="M53.3087 3.39124C53.3087 2.40024 54.0704 1.73279 54.9661 1.73279C55.8619 1.73279 56.6236 2.40024 56.6236 3.39124C56.6236 4.38223 55.8574 5.04969 54.9661 5.04969C54.0749 5.04969 53.3087 4.38223 53.3087 3.39124ZM54.9661 4.55871C55.5686 4.55871 56.0938 4.09941 56.0938 3.39124C56.0938 2.68306 55.5686 2.22376 54.9661 2.22376C54.3636 2.22376 53.8385 2.68306 53.8385 3.39124C53.8385 4.09941 54.3636 4.55871 54.9661 4.55871Z" fill="white"></path><path d="M9.26031 9.42346H6.94809C6.83669 9.42346 6.73892 9.49134 6.698 9.59542L5.02011 14.1477C4.93371 14.3762 4.60859 14.3762 4.5222 14.1477L2.83067 9.59542C2.79202 9.4936 2.69198 9.42346 2.58285 9.42346H0.266088C0.0773817 9.42346 -0.0522114 9.61578 0.0205426 9.79L3.3695 18.1049C3.41043 18.2044 3.50819 18.2678 3.61505 18.2678H5.90907C6.01821 18.2678 6.11369 18.2044 6.15462 18.1049L9.50358 9.79C9.57633 9.61578 9.44901 9.42346 9.25803 9.42346H9.26031Z" fill="white"></path><path d="M14.0235 9.42346C11.7999 9.42346 9.62866 10.9801 9.62866 13.8626C9.62866 15.5595 10.4153 16.8175 11.568 17.546C12.1432 17.3017 12.8048 17.1659 13.5256 17.1659C14.6191 17.1659 15.4717 17.4804 16.1197 17.899C16.6881 17.6637 17.1587 17.3266 17.5179 16.9351C17.6112 16.8333 17.6112 16.6749 17.5179 16.5731L16.5812 15.5799C16.4971 15.4916 16.3607 15.469 16.2561 15.5301C15.6877 15.8695 15.1148 15.9758 14.4895 15.9758C13.7461 15.9758 13.1436 15.7812 12.7434 15.3921C12.5775 15.2292 12.7048 14.9441 12.9367 14.9441H17.9931C18.1272 14.9441 18.2409 14.8468 18.2568 14.7133C18.7184 10.8579 16.1606 9.42346 14.0303 9.42346H14.0235ZM15.3262 12.9463H12.748C12.5343 12.9463 12.407 12.7019 12.5275 12.5277C12.889 12.0186 13.471 11.7833 14.0553 11.7833C14.6396 11.7833 15.2489 12.0231 15.5581 12.5503C15.6604 12.7268 15.5286 12.9485 15.3262 12.9485V12.9463Z" fill="white"></path><path d="M24.6229 9.42346C23.7657 9.42346 23.095 9.69497 22.6062 10.1226C22.4448 10.2674 22.1879 10.1565 22.1879 9.94159V9.59994C22.1879 9.50265 22.1083 9.42346 22.0106 9.42346H19.5164C19.4187 9.42346 19.3391 9.50265 19.3391 9.59994V18.0053C19.3391 18.1501 19.4573 18.27 19.6051 18.27H21.9196C22.0674 18.27 22.1879 18.1524 22.1879 18.0053V13.5843C22.1879 12.6996 22.5994 11.9304 23.5543 11.9304C24.5092 11.9304 24.9525 12.6996 24.9525 13.5843V18.0053C24.9525 18.1501 25.0708 18.27 25.2208 18.27H27.5353C27.6808 18.27 27.8013 18.1524 27.8013 18.0053V13.0933C27.8013 10.4891 26.3531 9.42346 24.6251 9.42346H24.6229Z" fill="white"></path><path d="M37.8894 7.4101H35.575C35.4294 7.4101 35.3089 7.52775 35.3089 7.67708V10.3921H35.2589C35.193 10.2451 34.3859 9.42603 32.8876 9.42603C30.9778 9.42603 28.8384 10.8673 28.8384 13.8493C28.8384 16.8314 30.9801 18.2703 32.8876 18.2703C34.3836 18.2703 35.1907 17.4513 35.2589 17.3042H35.3089V18.0056C35.3089 18.1504 35.4272 18.2703 35.575 18.2703H37.8894C38.0372 18.2703 38.1577 18.1527 38.1577 18.0056V7.67482C38.1577 7.52775 38.0395 7.40784 37.8894 7.40784V7.4101ZM33.4992 15.7634C32.5102 15.7634 31.6371 15.0439 31.6371 13.8471C31.6371 12.6502 32.5102 11.9307 33.4992 11.9307C34.4882 11.9307 35.3749 12.6343 35.3749 13.8471C35.3749 15.0598 34.52 15.7634 33.4992 15.7634Z" fill="white"></path><path d="M48.2433 9.42377H45.9288C45.781 9.42377 45.6605 9.54142 45.6605 9.69075V10.3899H45.6105C45.5446 10.2428 44.7397 9.42377 43.2392 9.42377C41.3294 9.42377 39.1899 10.865 39.1899 13.8471C39.1899 16.8291 41.3294 18.2681 43.2392 18.2681C44.7374 18.2681 45.5446 17.449 45.6105 17.302H45.6605V18.0034C45.6605 18.1482 45.7787 18.2681 45.9288 18.2681H48.2433C48.3911 18.2681 48.5116 18.1504 48.5116 18.0034V9.68849C48.5116 9.54142 48.3933 9.42151 48.2433 9.42151V9.42377ZM43.8508 15.7634C42.8617 15.7634 41.991 15.0439 41.991 13.8471C41.991 12.6502 42.8617 11.9307 43.8508 11.9307C44.8398 11.9307 45.7287 12.6343 45.7287 13.8471C45.7287 15.0598 44.8739 15.7634 43.8508 15.7634Z" fill="white"></path><path d="M55.9207 15.7201C55.7434 15.7518 55.5797 15.7653 55.4592 15.7653C54.6521 15.7653 54.4224 15.2721 54.4224 14.8762V12.2991C54.4224 12.1362 54.5543 12.0027 54.718 12.0027H55.9366C56.1003 12.0027 56.2322 11.8692 56.2322 11.7063V9.72206C56.2322 9.55689 56.1003 9.4234 55.9366 9.4234H54.718C54.5543 9.4234 54.4224 9.30801 54.4224 9.14511V7.70613C54.4224 7.54096 54.2906 7.40747 54.1269 7.40747H51.8715C51.7078 7.40747 51.5759 7.54096 51.5759 7.70613V9.14511C51.5759 9.30801 51.4441 9.4234 51.2804 9.4234H50.6188C50.4551 9.4234 50.3209 9.55689 50.3209 9.72206V11.7063C50.3209 11.8692 50.4551 12.0027 50.6188 12.0027H51.2804C51.4441 12.0027 51.5759 12.1362 51.5759 12.2991V15.306C51.5759 17.4487 52.8105 18.2722 54.5225 18.2722C55.1 18.2722 55.782 18.1795 56.1549 17.8967C56.2254 17.8424 56.2686 17.7541 56.2686 17.6614V16.0142C56.2686 15.8309 56.1026 15.6884 55.923 15.7223L55.9207 15.7201Z" fill="white"></path><path d="M61.4342 9.42334C59.181 9.42334 56.8597 10.946 56.8597 13.8466C56.8597 16.7472 59.181 18.2676 61.4342 18.2676C63.6873 18.2676 65.9927 16.745 65.9927 13.8466C65.9927 10.9483 63.6713 9.42334 61.4342 9.42334ZM61.4342 15.7313C60.4452 15.7313 59.6562 14.9779 59.6562 13.8466C59.6562 12.7153 60.4452 11.9619 61.4342 11.9619C62.4232 11.9619 63.1962 12.7153 63.1962 13.8466C63.1962 14.9779 62.4072 15.7313 61.4342 15.7313Z" fill="white"></path><path d="M75.6425 7.40955H73.3871C73.2234 7.40955 73.0915 7.54304 73.0915 7.70594V10.3916H73.0415C72.9756 10.2445 72.1707 9.42548 70.6702 9.42548C68.7604 9.42548 66.621 10.8667 66.621 13.8488C66.621 16.8308 68.7604 18.2698 70.6702 18.2698C72.1685 18.2698 72.9756 17.4507 73.0415 17.3037H73.0915V17.9757C73.0915 18.1386 73.2234 18.2698 73.3871 18.2698H75.6425C75.8062 18.2698 75.938 18.1386 75.938 17.9757V7.70594C75.938 7.54304 75.8062 7.40955 75.6425 7.40955ZM71.2795 15.7629C70.2905 15.7629 69.4197 15.0434 69.4197 13.8465C69.4197 12.6496 70.2905 11.9301 71.2795 11.9301C72.2685 11.9301 73.1575 12.6338 73.1575 13.8465C73.1575 15.0592 72.3026 15.7629 71.2795 15.7629Z" fill="white"></path><path d="M81.5511 9.42334C79.2957 9.42334 76.9744 10.946 76.9744 13.8466C76.9744 16.7472 79.2957 18.2676 81.5511 18.2676C83.8064 18.2676 86.1095 16.745 86.1095 13.8466C86.1095 10.9483 83.7882 9.42334 81.5511 9.42334ZM81.5511 15.7313C80.5621 15.7313 79.7731 14.9779 79.7731 13.8466C79.7731 12.7153 80.5643 11.9619 81.5511 11.9619C82.5378 11.9619 83.3131 12.7153 83.3131 13.8466C83.3131 14.9779 82.5219 15.7313 81.5511 15.7313Z" fill="white"></path><path d="M61.3847 18.7089H59.0725C58.9247 18.7089 58.8042 18.8288 58.8042 18.9758V21.6932H58.7542C58.6882 21.5461 57.8834 20.7271 56.3829 20.7271C55.362 20.7271 54.2775 21.1388 53.4863 21.9782C54.2298 22.829 54.6186 23.9105 54.6186 25.1503C54.6186 26.3902 54.2298 27.4717 53.4863 28.3224C54.2753 29.1618 55.362 29.5736 56.3829 29.5736C57.8811 29.5736 58.6882 28.7546 58.7542 28.6075H58.8042V29.1437C58.8042 29.2908 58.9247 29.4107 59.0725 29.4107H61.3847C61.5325 29.4107 61.653 29.2908 61.653 29.1437V18.9781C61.653 18.831 61.5347 18.7111 61.3847 18.7111V18.7089ZM56.9944 27.0667C56.0054 27.0667 55.1347 26.3472 55.1347 25.1503C55.1347 23.9535 56.0054 23.234 56.9944 23.234C57.9834 23.234 58.8724 23.9376 58.8724 25.1503C58.8724 26.3631 58.0175 27.0667 56.9944 27.0667Z" fill="white"></path><path d="M65.6818 20.7272H63.3696C63.2218 20.7272 63.1013 20.8448 63.1013 20.9942V29.1416C63.1013 29.2887 63.2218 29.4086 63.3696 29.4086H65.6818C65.8296 29.4086 65.9501 29.2887 65.9501 29.1416V20.9942C65.9501 20.8471 65.8319 20.7272 65.6818 20.7272ZM65.6818 18.709H63.3696C63.2218 18.709 63.1013 18.8289 63.1013 18.976V19.9534C63.1013 20.1005 63.2218 20.2204 63.3696 20.2204H65.6818C65.8296 20.2204 65.9501 20.1027 65.9501 19.9534V18.976C65.9501 18.8289 65.8319 18.709 65.6818 18.709Z" fill="white"></path><path d="M76.0357 20.7272H73.7235C73.5757 20.7272 73.4552 20.8448 73.4552 20.9942V21.6933H73.4052C73.3392 21.5462 72.5321 20.7272 71.0338 20.7272C69.124 20.7272 66.9846 22.1684 66.9846 25.1505C66.9846 28.1325 69.124 29.5715 71.0338 29.5715C72.5298 29.5715 73.337 28.7524 73.4052 28.6054H73.4552V29.1416C73.4552 29.2887 73.5734 29.4086 73.7235 29.4086H76.0357C76.1835 29.4086 76.304 29.2887 76.304 29.1416V20.9942C76.304 20.8471 76.1835 20.7272 76.0357 20.7272ZM71.6454 27.0668C70.6564 27.0668 69.7834 26.3473 69.7834 25.1505C69.7834 23.9536 70.6564 23.2341 71.6454 23.2341C72.6344 23.2341 73.5211 23.9377 73.5211 25.1505C73.5211 26.3632 72.6663 27.0668 71.6454 27.0668Z" fill="white"></path><path d="M9.51776 26.5374L11.3866 25.6731C11.523 25.6097 11.6822 25.664 11.7549 25.7953C12.0892 26.3971 12.6053 26.9854 13.5079 26.9854C14.1831 26.9854 14.7924 26.6573 14.7924 25.8722C14.7924 25.3156 14.5287 25.0373 13.492 24.6278L12.7667 24.3495C11.2525 23.7431 9.72238 22.9083 9.72238 20.9263C9.72238 18.9443 11.4662 17.6184 13.5238 17.6184C15.4586 17.6184 16.7045 18.7157 17.332 19.8606C17.407 19.9963 17.357 20.166 17.2229 20.243L15.5518 21.1887C15.4222 21.2611 15.2608 21.2227 15.1767 21.1005C14.7038 20.4149 14.1922 20.157 13.6397 20.157C13.0304 20.157 12.5689 20.4194 12.5689 20.976C12.5689 21.4014 12.8167 21.7453 14.0012 22.2046L14.7924 22.5168C16.9478 23.3856 17.8049 24.3518 17.8049 25.9084C17.8049 28.4153 15.5495 29.5782 13.5579 29.5782C11.5662 29.5782 9.91109 28.4673 9.3677 26.8926C9.31996 26.7546 9.38362 26.6053 9.51776 26.5442V26.5374Z" fill="#B3B3B3"></path><path d="M18.4302 25.1481C18.4302 22.166 20.5696 20.7248 22.4794 20.7248C23.9777 20.7248 24.7848 21.5438 24.8507 21.6909H24.9007V21.0054C24.9007 20.8492 25.0281 20.7225 25.1849 20.7225H27.4653C27.6222 20.7225 27.7495 20.8492 27.7495 21.0054V29.1234C27.7495 29.2795 27.6222 29.4062 27.4653 29.4062H25.1849C25.0281 29.4062 24.9007 29.2795 24.9007 29.1234V28.603H24.8507C24.7848 28.7501 23.9777 29.5691 22.4794 29.5691C20.5696 29.5691 18.4302 28.1279 18.4302 25.1458V25.1481ZM23.0887 27.0645C24.1095 27.0645 24.9644 26.3608 24.9644 25.1481C24.9644 23.9354 24.1095 23.2317 23.0887 23.2317C22.0679 23.2317 21.2289 23.9535 21.2289 25.1481C21.2289 26.3427 22.102 27.0645 23.0887 27.0645Z" fill="#B3B3B3"></path><path d="M29.4798 20.7271H31.7601C31.917 20.7271 32.0443 20.8538 32.0443 21.0099V21.252C32.0443 21.4669 32.299 21.5755 32.4604 21.433C32.9492 21.0031 33.6222 20.7293 34.4816 20.7293C36.2095 20.7293 37.6578 21.795 37.6578 24.3992V29.1302C37.6578 29.2863 37.5304 29.413 37.3736 29.413H35.0932C34.9363 29.413 34.809 29.2863 34.809 29.1302V24.8901C34.809 24.0055 34.3816 23.2362 33.4107 23.2362C32.4399 23.2362 32.0443 24.0055 32.0443 24.8901V29.1302C32.0443 29.2863 31.917 29.413 31.7601 29.413H29.4798C29.3229 29.413 29.1956 29.2863 29.1956 29.1302V21.0121C29.1956 20.856 29.3229 20.7293 29.4798 20.7293V20.7271Z" fill="#B3B3B3"></path><path d="M39.7471 26.5577V23.3992C39.7471 23.2431 39.6198 23.1164 39.4629 23.1164H38.7285C38.5717 23.1164 38.4443 22.9897 38.4443 22.8336V21.0122C38.4443 20.8561 38.5717 20.7294 38.7285 20.7294H39.4629C39.6198 20.7294 39.7471 20.6027 39.7471 20.4466V18.9895C39.7471 18.8334 39.8744 18.7067 40.0313 18.7067H42.3117C42.4685 18.7067 42.5959 18.8334 42.5959 18.9895V20.4466C42.5959 20.6027 42.7232 20.7294 42.8801 20.7294H44.1237C44.2806 20.7294 44.4079 20.8561 44.4079 21.0122V22.8336C44.4079 22.9897 44.2806 23.1164 44.1237 23.1164H42.8801C42.7232 23.1164 42.5959 23.2431 42.5959 23.3992V26.1324C42.5959 26.526 42.8255 27.017 43.6326 27.017C43.7554 27.017 43.9236 27.0034 44.1055 26.9695C44.2874 26.9356 44.4397 27.0736 44.4397 27.2501V28.9062C44.4397 28.9922 44.4011 29.0759 44.3306 29.1302C43.96 29.4131 43.2734 29.5081 42.6936 29.5081C40.9816 29.5081 39.7471 28.689 39.7471 26.56V26.5577Z" fill="#B3B3B3"></path><path d="M45.0342 25.1481C45.0342 22.2475 47.3555 20.7249 49.6109 20.7249C51.8662 20.7249 54.1694 22.2475 54.1694 25.1481C54.1694 28.0487 51.8481 29.5714 49.6109 29.5714C47.3737 29.5714 45.0342 28.0487 45.0342 25.1481ZM49.6109 27.0328C50.5817 27.0328 51.3729 26.2794 51.3729 25.1481C51.3729 24.0169 50.5817 23.2634 49.6109 23.2634C48.6401 23.2634 47.8329 24.0169 47.8329 25.1481C47.8329 26.2794 48.6241 27.0328 49.6109 27.0328Z" fill="#B3B3B3"></path></svg>